G04 #@! TF.GenerationSoftware,KiCad,Pcbnew,(5.0.2)-1*
G04 #@! TF.CreationDate,2019-02-19T19:48:52+01:00*
G04 #@! TF.ProjectId,rload,726c6f61-642e-46b6-9963-61645f706362,rev?*
G04 #@! TF.SameCoordinates,Original*
G04 #@! TF.FileFunction,Copper,L2,Bot*
G04 #@! TF.FilePolarity,Positive*
%FSLAX46Y46*%
G04 Gerber Fmt 4.6, Leading zero omitted, Abs format (unit mm)*
G04 Created by KiCad (PCBNEW (5.0.2)-1) date 19.02.2019 19:48:52*
%MOMM*%
%LPD*%
G01*
G04 APERTURE LIST*
G04 #@! TA.AperFunction,ComponentPad*
%ADD10C,5.000000*%
G04 #@! TD*
G04 #@! TA.AperFunction,ComponentPad*
%ADD11C,3.000000*%
G04 #@! TD*
G04 #@! TA.AperFunction,ComponentPad*
%ADD12O,4.300000X2.000000*%
G04 #@! TD*
G04 #@! TA.AperFunction,ComponentPad*
%ADD13O,2.000000X4.300000*%
G04 #@! TD*
G04 #@! TA.AperFunction,ComponentPad*
%ADD14C,1.524000*%
G04 #@! TD*
G04 #@! TA.AperFunction,ComponentPad*
%ADD15O,1.700000X1.700000*%
G04 #@! TD*
G04 #@! TA.AperFunction,ComponentPad*
%ADD16R,1.700000X1.700000*%
G04 #@! TD*
G04 #@! TA.AperFunction,ComponentPad*
%ADD17O,1.905000X2.000000*%
G04 #@! TD*
G04 #@! TA.AperFunction,ComponentPad*
%ADD18R,1.905000X2.000000*%
G04 #@! TD*
G04 #@! TA.AperFunction,ComponentPad*
%ADD19O,2.800000X2.800000*%
G04 #@! TD*
G04 #@! TA.AperFunction,ComponentPad*
%ADD20C,2.800000*%
G04 #@! TD*
G04 #@! TA.AperFunction,ViaPad*
%ADD21C,0.800000*%
G04 #@! TD*
G04 #@! TA.AperFunction,Conductor*
%ADD22C,1.000000*%
G04 #@! TD*
G04 #@! TA.AperFunction,Conductor*
%ADD23C,0.254000*%
G04 #@! TD*
G04 APERTURE END LIST*
D10*
G04 #@! TO.P,J1,1*
G04 #@! TO.N,Net-(J1-Pad1)*
X199390000Y-77470000D03*
G04 #@! TD*
G04 #@! TO.P,J2,1*
G04 #@! TO.N,GND*
X199390000Y-121920000D03*
G04 #@! TD*
D11*
G04 #@! TO.P,F1,2*
G04 #@! TO.N,Net-(F1-Pad2)*
X128530000Y-120650000D03*
G04 #@! TO.P,F1,1*
G04 #@! TO.N,+5V*
X151130000Y-120650000D03*
G04 #@! TD*
D12*
G04 #@! TO.P,J4,3*
G04 #@! TO.N,GND*
X121290000Y-115650000D03*
D13*
G04 #@! TO.P,J4,2*
X117990000Y-120650000D03*
G04 #@! TO.P,J4,1*
G04 #@! TO.N,Net-(F1-Pad2)*
X124290000Y-120650000D03*
G04 #@! TD*
D14*
G04 #@! TO.P,U1,8*
G04 #@! TO.N,ADC*
X118500000Y-84060000D03*
G04 #@! TO.P,U1,7*
G04 #@! TO.N,SI*
X121040000Y-84060000D03*
G04 #@! TO.P,U1,6*
G04 #@! TO.N,RS*
X123580000Y-84060000D03*
G04 #@! TO.P,U1,5*
G04 #@! TO.N,GND*
X126120000Y-84060000D03*
G04 #@! TO.P,U1,4*
G04 #@! TO.N,PWM*
X126120000Y-76440000D03*
G04 #@! TO.P,U1,3*
G04 #@! TO.N,CSB*
X123580000Y-76440000D03*
G04 #@! TO.P,U1,2*
G04 #@! TO.N,SCLK*
X121040000Y-76440000D03*
G04 #@! TO.P,U1,1*
G04 #@! TO.N,+5V*
X118500000Y-76440000D03*
G04 #@! TD*
D15*
G04 #@! TO.P,J3,6*
G04 #@! TO.N,+5V*
X137070000Y-75750000D03*
G04 #@! TO.P,J3,5*
G04 #@! TO.N,GND*
X139610000Y-75750000D03*
G04 #@! TO.P,J3,4*
G04 #@! TO.N,CSB*
X142150000Y-75750000D03*
G04 #@! TO.P,J3,3*
G04 #@! TO.N,RS*
X144690000Y-75750000D03*
G04 #@! TO.P,J3,2*
G04 #@! TO.N,SCLK*
X147230000Y-75750000D03*
D16*
G04 #@! TO.P,J3,1*
G04 #@! TO.N,SI*
X149770000Y-75750000D03*
G04 #@! TD*
D17*
G04 #@! TO.P,Q1,3*
G04 #@! TO.N,I_SENSE*
X176530000Y-80010000D03*
G04 #@! TO.P,Q1,2*
G04 #@! TO.N,Net-(J1-Pad1)*
X173990000Y-80010000D03*
D18*
G04 #@! TO.P,Q1,1*
G04 #@! TO.N,Net-(Q1-Pad1)*
X171450000Y-80010000D03*
G04 #@! TD*
D19*
G04 #@! TO.P,R8,2*
G04 #@! TO.N,I_SENSE*
X173983172Y-96591686D03*
D20*
G04 #@! TO.P,R8,1*
G04 #@! TO.N,GND*
X173983172Y-111831686D03*
G04 #@! TD*
D19*
G04 #@! TO.P,R7,2*
G04 #@! TO.N,I_SENSE*
X180333172Y-96577686D03*
D20*
G04 #@! TO.P,R7,1*
G04 #@! TO.N,GND*
X180333172Y-111817686D03*
G04 #@! TD*
D19*
G04 #@! TO.P,R6,2*
G04 #@! TO.N,I_SENSE*
X186683172Y-96577686D03*
D20*
G04 #@! TO.P,R6,1*
G04 #@! TO.N,GND*
X186683172Y-111817686D03*
G04 #@! TD*
D19*
G04 #@! TO.P,R5,2*
G04 #@! TO.N,I_SENSE*
X193033172Y-96577686D03*
D20*
G04 #@! TO.P,R5,1*
G04 #@! TO.N,GND*
X193033172Y-111817686D03*
G04 #@! TD*
D19*
G04 #@! TO.P,R4,2*
G04 #@! TO.N,I_SENSE*
X199383172Y-96577686D03*
D20*
G04 #@! TO.P,R4,1*
G04 #@! TO.N,GND*
X199383172Y-111817686D03*
G04 #@! TD*
D19*
G04 #@! TO.P,R9,2*
G04 #@! TO.N,I_SENSE*
X167633172Y-96591686D03*
D20*
G04 #@! TO.P,R9,1*
G04 #@! TO.N,GND*
X167633172Y-111831686D03*
G04 #@! TD*
D19*
G04 #@! TO.P,R10,2*
G04 #@! TO.N,I_SENSE*
X161283172Y-96591686D03*
D20*
G04 #@! TO.P,R10,1*
G04 #@! TO.N,GND*
X161283172Y-111831686D03*
G04 #@! TD*
D19*
G04 #@! TO.P,R11,2*
G04 #@! TO.N,I_SENSE*
X154933172Y-96591686D03*
D20*
G04 #@! TO.P,R11,1*
G04 #@! TO.N,GND*
X154933172Y-111831686D03*
G04 #@! TD*
D19*
G04 #@! TO.P,R12,2*
G04 #@! TO.N,I_SENSE*
X148583172Y-96591686D03*
D20*
G04 #@! TO.P,R12,1*
G04 #@! TO.N,GND*
X148583172Y-111831686D03*
G04 #@! TD*
D19*
G04 #@! TO.P,R13,2*
G04 #@! TO.N,I_SENSE*
X142233172Y-96591686D03*
D20*
G04 #@! TO.P,R13,1*
G04 #@! TO.N,GND*
X142233172Y-111831686D03*
G04 #@! TD*
D21*
G04 #@! TO.N,GND*
X168910000Y-85090000D03*
X147320000Y-85090000D03*
X133350000Y-102870000D03*
X135890000Y-99060000D03*
X128270000Y-97790000D03*
X121920000Y-97790000D03*
X120650000Y-92710000D03*
X124460000Y-81280000D03*
X134620000Y-87630000D03*
X132080000Y-80010000D03*
X116840000Y-78740000D03*
X115570000Y-74930000D03*
X151765000Y-78740000D03*
X151765000Y-74295000D03*
X113284000Y-91440000D03*
X113538000Y-84074000D03*
X133858000Y-84074000D03*
X131572000Y-93726000D03*
X121920000Y-104140000D03*
X132842000Y-96774000D03*
X126723662Y-81003662D03*
X128730000Y-88850000D03*
X132080000Y-76200000D03*
X138730000Y-91750000D03*
X118230000Y-79750000D03*
X161230000Y-79750000D03*
X124230000Y-109250000D03*
X128730000Y-102750000D03*
X115730000Y-106250000D03*
X131230000Y-107250000D03*
G04 #@! TD*
D22*
G04 #@! TO.N,GND*
X121290000Y-117790000D02*
X121290000Y-115650000D01*
X121290000Y-113650000D02*
X121500000Y-113440000D01*
X121290000Y-115650000D02*
X121290000Y-113650000D01*
X117990000Y-120650000D02*
X114850000Y-120650000D01*
X119990000Y-120650000D02*
X120140000Y-120500000D01*
X117990000Y-120650000D02*
X119990000Y-120650000D01*
G04 #@! TD*
D23*
G04 #@! TO.N,GND*
G36*
X203760001Y-126290000D02*
X111200000Y-126290000D01*
X111200000Y-124155880D01*
X197333725Y-124155880D01*
X197615421Y-124578564D01*
X198767892Y-125055294D01*
X200015072Y-125054705D01*
X201164579Y-124578564D01*
X201446275Y-124155880D01*
X199390000Y-122099605D01*
X197333725Y-124155880D01*
X111200000Y-124155880D01*
X111200000Y-120777000D01*
X116355000Y-120777000D01*
X116355000Y-121927000D01*
X116528058Y-122543020D01*
X116923683Y-123045922D01*
X117481645Y-123359144D01*
X117609566Y-123390124D01*
X117863000Y-123270777D01*
X117863000Y-120777000D01*
X118117000Y-120777000D01*
X118117000Y-123270777D01*
X118370434Y-123390124D01*
X118498355Y-123359144D01*
X119056317Y-123045922D01*
X119451942Y-122543020D01*
X119625000Y-121927000D01*
X119625000Y-120777000D01*
X118117000Y-120777000D01*
X117863000Y-120777000D01*
X116355000Y-120777000D01*
X111200000Y-120777000D01*
X111200000Y-119373000D01*
X116355000Y-119373000D01*
X116355000Y-120523000D01*
X117863000Y-120523000D01*
X117863000Y-118029223D01*
X118117000Y-118029223D01*
X118117000Y-120523000D01*
X119625000Y-120523000D01*
X119625000Y-119373000D01*
X119615440Y-119338970D01*
X122655000Y-119338970D01*
X122655001Y-121961031D01*
X122749865Y-122437945D01*
X123111232Y-122978769D01*
X123652056Y-123340136D01*
X124290000Y-123467031D01*
X124927945Y-123340136D01*
X125468769Y-122978769D01*
X125830136Y-122437945D01*
X125925000Y-121961031D01*
X125925000Y-120225322D01*
X126395000Y-120225322D01*
X126395000Y-121074678D01*
X126720034Y-121859380D01*
X127320620Y-122459966D01*
X128105322Y-122785000D01*
X128954678Y-122785000D01*
X129739380Y-122459966D01*
X130339966Y-121859380D01*
X130665000Y-121074678D01*
X130665000Y-120225322D01*
X148995000Y-120225322D01*
X148995000Y-121074678D01*
X149320034Y-121859380D01*
X149920620Y-122459966D01*
X150705322Y-122785000D01*
X151554678Y-122785000D01*
X152339380Y-122459966D01*
X152939966Y-121859380D01*
X153172541Y-121297892D01*
X196254706Y-121297892D01*
X196255295Y-122545072D01*
X196731436Y-123694579D01*
X197154120Y-123976275D01*
X199210395Y-121920000D01*
X199569605Y-121920000D01*
X201625880Y-123976275D01*
X202048564Y-123694579D01*
X202525294Y-122542108D01*
X202524705Y-121294928D01*
X202048564Y-120145421D01*
X201625880Y-119863725D01*
X199569605Y-121920000D01*
X199210395Y-121920000D01*
X197154120Y-119863725D01*
X196731436Y-120145421D01*
X196254706Y-121297892D01*
X153172541Y-121297892D01*
X153265000Y-121074678D01*
X153265000Y-120225322D01*
X153040827Y-119684120D01*
X197333725Y-119684120D01*
X199390000Y-121740395D01*
X201446275Y-119684120D01*
X201164579Y-119261436D01*
X200012108Y-118784706D01*
X198764928Y-118785295D01*
X197615421Y-119261436D01*
X197333725Y-119684120D01*
X153040827Y-119684120D01*
X152939966Y-119440620D01*
X152339380Y-118840034D01*
X151554678Y-118515000D01*
X150705322Y-118515000D01*
X149920620Y-118840034D01*
X149320034Y-119440620D01*
X148995000Y-120225322D01*
X130665000Y-120225322D01*
X130339966Y-119440620D01*
X129739380Y-118840034D01*
X128954678Y-118515000D01*
X128105322Y-118515000D01*
X127320620Y-118840034D01*
X126720034Y-119440620D01*
X126395000Y-120225322D01*
X125925000Y-120225322D01*
X125925000Y-119338969D01*
X125830136Y-118862055D01*
X125468769Y-118321231D01*
X124927944Y-117959864D01*
X124290000Y-117832969D01*
X123652055Y-117959864D01*
X123111231Y-118321231D01*
X122749864Y-118862056D01*
X122655000Y-119338970D01*
X119615440Y-119338970D01*
X119451942Y-118756980D01*
X119056317Y-118254078D01*
X118498355Y-117940856D01*
X118370434Y-117909876D01*
X118117000Y-118029223D01*
X117863000Y-118029223D01*
X117609566Y-117909876D01*
X117481645Y-117940856D01*
X116923683Y-118254078D01*
X116528058Y-118756980D01*
X116355000Y-119373000D01*
X111200000Y-119373000D01*
X111200000Y-116030434D01*
X118549876Y-116030434D01*
X118580856Y-116158355D01*
X118894078Y-116716317D01*
X119396980Y-117111942D01*
X120013000Y-117285000D01*
X121163000Y-117285000D01*
X121163000Y-115777000D01*
X121417000Y-115777000D01*
X121417000Y-117285000D01*
X122567000Y-117285000D01*
X123183020Y-117111942D01*
X123685922Y-116716317D01*
X123999144Y-116158355D01*
X124030124Y-116030434D01*
X123910777Y-115777000D01*
X121417000Y-115777000D01*
X121163000Y-115777000D01*
X118669223Y-115777000D01*
X118549876Y-116030434D01*
X111200000Y-116030434D01*
X111200000Y-115269566D01*
X118549876Y-115269566D01*
X118669223Y-115523000D01*
X121163000Y-115523000D01*
X121163000Y-114015000D01*
X121417000Y-114015000D01*
X121417000Y-115523000D01*
X123910777Y-115523000D01*
X124030124Y-115269566D01*
X123999144Y-115141645D01*
X123685922Y-114583683D01*
X123183020Y-114188058D01*
X122567000Y-114015000D01*
X121417000Y-114015000D01*
X121163000Y-114015000D01*
X120013000Y-114015000D01*
X119396980Y-114188058D01*
X118894078Y-114583683D01*
X118580856Y-115141645D01*
X118549876Y-115269566D01*
X111200000Y-115269566D01*
X111200000Y-113273410D01*
X140971054Y-113273410D01*
X141118627Y-113581792D01*
X141873203Y-113875091D01*
X142682581Y-113857300D01*
X143347717Y-113581792D01*
X143495290Y-113273410D01*
X147321054Y-113273410D01*
X147468627Y-113581792D01*
X148223203Y-113875091D01*
X149032581Y-113857300D01*
X149697717Y-113581792D01*
X149845290Y-113273410D01*
X153671054Y-113273410D01*
X153818627Y-113581792D01*
X154573203Y-113875091D01*
X155382581Y-113857300D01*
X156047717Y-113581792D01*
X156195290Y-113273410D01*
X160021054Y-113273410D01*
X160168627Y-113581792D01*
X160923203Y-113875091D01*
X161732581Y-113857300D01*
X162397717Y-113581792D01*
X162545290Y-113273410D01*
X166371054Y-113273410D01*
X166518627Y-113581792D01*
X167273203Y-113875091D01*
X168082581Y-113857300D01*
X168747717Y-113581792D01*
X168895290Y-113273410D01*
X172721054Y-113273410D01*
X172868627Y-113581792D01*
X173623203Y-113875091D01*
X174432581Y-113857300D01*
X175097717Y-113581792D01*
X175245290Y-113273410D01*
X175231291Y-113259410D01*
X179071054Y-113259410D01*
X179218627Y-113567792D01*
X179973203Y-113861091D01*
X180782581Y-113843300D01*
X181447717Y-113567792D01*
X181595290Y-113259410D01*
X185421054Y-113259410D01*
X185568627Y-113567792D01*
X186323203Y-113861091D01*
X187132581Y-113843300D01*
X187797717Y-113567792D01*
X187945290Y-113259410D01*
X191771054Y-113259410D01*
X191918627Y-113567792D01*
X192673203Y-113861091D01*
X193482581Y-113843300D01*
X194147717Y-113567792D01*
X194295290Y-113259410D01*
X198121054Y-113259410D01*
X198268627Y-113567792D01*
X199023203Y-113861091D01*
X199832581Y-113843300D01*
X200497717Y-113567792D01*
X200645290Y-113259410D01*
X199383172Y-111997291D01*
X198121054Y-113259410D01*
X194295290Y-113259410D01*
X193033172Y-111997291D01*
X191771054Y-113259410D01*
X187945290Y-113259410D01*
X186683172Y-111997291D01*
X185421054Y-113259410D01*
X181595290Y-113259410D01*
X180333172Y-111997291D01*
X179071054Y-113259410D01*
X175231291Y-113259410D01*
X173983172Y-112011291D01*
X172721054Y-113273410D01*
X168895290Y-113273410D01*
X167633172Y-112011291D01*
X166371054Y-113273410D01*
X162545290Y-113273410D01*
X161283172Y-112011291D01*
X160021054Y-113273410D01*
X156195290Y-113273410D01*
X154933172Y-112011291D01*
X153671054Y-113273410D01*
X149845290Y-113273410D01*
X148583172Y-112011291D01*
X147321054Y-113273410D01*
X143495290Y-113273410D01*
X142233172Y-112011291D01*
X140971054Y-113273410D01*
X111200000Y-113273410D01*
X111200000Y-111471717D01*
X140189767Y-111471717D01*
X140207558Y-112281095D01*
X140483066Y-112946231D01*
X140791448Y-113093804D01*
X142053567Y-111831686D01*
X142412777Y-111831686D01*
X143674896Y-113093804D01*
X143983278Y-112946231D01*
X144276577Y-112191655D01*
X144260752Y-111471717D01*
X146539767Y-111471717D01*
X146557558Y-112281095D01*
X146833066Y-112946231D01*
X147141448Y-113093804D01*
X148403567Y-111831686D01*
X148762777Y-111831686D01*
X150024896Y-113093804D01*
X150333278Y-112946231D01*
X150626577Y-112191655D01*
X150610752Y-111471717D01*
X152889767Y-111471717D01*
X152907558Y-112281095D01*
X153183066Y-112946231D01*
X153491448Y-113093804D01*
X154753567Y-111831686D01*
X155112777Y-111831686D01*
X156374896Y-113093804D01*
X156683278Y-112946231D01*
X156976577Y-112191655D01*
X156960752Y-111471717D01*
X159239767Y-111471717D01*
X159257558Y-112281095D01*
X159533066Y-112946231D01*
X159841448Y-113093804D01*
X161103567Y-111831686D01*
X161462777Y-111831686D01*
X162724896Y-113093804D01*
X163033278Y-112946231D01*
X163326577Y-112191655D01*
X163310752Y-111471717D01*
X165589767Y-111471717D01*
X165607558Y-112281095D01*
X165883066Y-112946231D01*
X166191448Y-113093804D01*
X167453567Y-111831686D01*
X167812777Y-111831686D01*
X169074896Y-113093804D01*
X169383278Y-112946231D01*
X169676577Y-112191655D01*
X169660752Y-111471717D01*
X171939767Y-111471717D01*
X171957558Y-112281095D01*
X172233066Y-112946231D01*
X172541448Y-113093804D01*
X173803567Y-111831686D01*
X174162777Y-111831686D01*
X175424896Y-113093804D01*
X175733278Y-112946231D01*
X176026577Y-112191655D01*
X176010445Y-111457717D01*
X178289767Y-111457717D01*
X178307558Y-112267095D01*
X178583066Y-112932231D01*
X178891448Y-113079804D01*
X180153567Y-111817686D01*
X180512777Y-111817686D01*
X181774896Y-113079804D01*
X182083278Y-112932231D01*
X182376577Y-112177655D01*
X182360752Y-111457717D01*
X184639767Y-111457717D01*
X184657558Y-112267095D01*
X184933066Y-112932231D01*
X185241448Y-113079804D01*
X186503567Y-111817686D01*
X186862777Y-111817686D01*
X188124896Y-113079804D01*
X188433278Y-112932231D01*
X188726577Y-112177655D01*
X188710752Y-111457717D01*
X190989767Y-111457717D01*
X191007558Y-112267095D01*
X191283066Y-112932231D01*
X191591448Y-113079804D01*
X192853567Y-111817686D01*
X193212777Y-111817686D01*
X194474896Y-113079804D01*
X194783278Y-112932231D01*
X195076577Y-112177655D01*
X195060752Y-111457717D01*
X197339767Y-111457717D01*
X197357558Y-112267095D01*
X197633066Y-112932231D01*
X197941448Y-113079804D01*
X199203567Y-111817686D01*
X199562777Y-111817686D01*
X200824896Y-113079804D01*
X201133278Y-112932231D01*
X201426577Y-112177655D01*
X201408786Y-111368277D01*
X201133278Y-110703141D01*
X200824896Y-110555568D01*
X199562777Y-111817686D01*
X199203567Y-111817686D01*
X197941448Y-110555568D01*
X197633066Y-110703141D01*
X197339767Y-111457717D01*
X195060752Y-111457717D01*
X195058786Y-111368277D01*
X194783278Y-110703141D01*
X194474896Y-110555568D01*
X193212777Y-111817686D01*
X192853567Y-111817686D01*
X191591448Y-110555568D01*
X191283066Y-110703141D01*
X190989767Y-111457717D01*
X188710752Y-111457717D01*
X188708786Y-111368277D01*
X188433278Y-110703141D01*
X188124896Y-110555568D01*
X186862777Y-111817686D01*
X186503567Y-111817686D01*
X185241448Y-110555568D01*
X184933066Y-110703141D01*
X184639767Y-111457717D01*
X182360752Y-111457717D01*
X182358786Y-111368277D01*
X182083278Y-110703141D01*
X181774896Y-110555568D01*
X180512777Y-111817686D01*
X180153567Y-111817686D01*
X178891448Y-110555568D01*
X178583066Y-110703141D01*
X178289767Y-111457717D01*
X176010445Y-111457717D01*
X176008786Y-111382277D01*
X175733278Y-110717141D01*
X175424896Y-110569568D01*
X174162777Y-111831686D01*
X173803567Y-111831686D01*
X172541448Y-110569568D01*
X172233066Y-110717141D01*
X171939767Y-111471717D01*
X169660752Y-111471717D01*
X169658786Y-111382277D01*
X169383278Y-110717141D01*
X169074896Y-110569568D01*
X167812777Y-111831686D01*
X167453567Y-111831686D01*
X166191448Y-110569568D01*
X165883066Y-110717141D01*
X165589767Y-111471717D01*
X163310752Y-111471717D01*
X163308786Y-111382277D01*
X163033278Y-110717141D01*
X162724896Y-110569568D01*
X161462777Y-111831686D01*
X161103567Y-111831686D01*
X159841448Y-110569568D01*
X159533066Y-110717141D01*
X159239767Y-111471717D01*
X156960752Y-111471717D01*
X156958786Y-111382277D01*
X156683278Y-110717141D01*
X156374896Y-110569568D01*
X155112777Y-111831686D01*
X154753567Y-111831686D01*
X153491448Y-110569568D01*
X153183066Y-110717141D01*
X152889767Y-111471717D01*
X150610752Y-111471717D01*
X150608786Y-111382277D01*
X150333278Y-110717141D01*
X150024896Y-110569568D01*
X148762777Y-111831686D01*
X148403567Y-111831686D01*
X147141448Y-110569568D01*
X146833066Y-110717141D01*
X146539767Y-111471717D01*
X144260752Y-111471717D01*
X144258786Y-111382277D01*
X143983278Y-110717141D01*
X143674896Y-110569568D01*
X142412777Y-111831686D01*
X142053567Y-111831686D01*
X140791448Y-110569568D01*
X140483066Y-110717141D01*
X140189767Y-111471717D01*
X111200000Y-111471717D01*
X111200000Y-110389962D01*
X140971054Y-110389962D01*
X142233172Y-111652081D01*
X143495290Y-110389962D01*
X147321054Y-110389962D01*
X148583172Y-111652081D01*
X149845290Y-110389962D01*
X153671054Y-110389962D01*
X154933172Y-111652081D01*
X156195290Y-110389962D01*
X160021054Y-110389962D01*
X161283172Y-111652081D01*
X162545290Y-110389962D01*
X166371054Y-110389962D01*
X167633172Y-111652081D01*
X168895290Y-110389962D01*
X172721054Y-110389962D01*
X173983172Y-111652081D01*
X175245290Y-110389962D01*
X175238591Y-110375962D01*
X179071054Y-110375962D01*
X180333172Y-111638081D01*
X181595290Y-110375962D01*
X185421054Y-110375962D01*
X186683172Y-111638081D01*
X187945290Y-110375962D01*
X191771054Y-110375962D01*
X193033172Y-111638081D01*
X194295290Y-110375962D01*
X198121054Y-110375962D01*
X199383172Y-111638081D01*
X200645290Y-110375962D01*
X200497717Y-110067580D01*
X199743141Y-109774281D01*
X198933763Y-109792072D01*
X198268627Y-110067580D01*
X198121054Y-110375962D01*
X194295290Y-110375962D01*
X194147717Y-110067580D01*
X193393141Y-109774281D01*
X192583763Y-109792072D01*
X191918627Y-110067580D01*
X191771054Y-110375962D01*
X187945290Y-110375962D01*
X187797717Y-110067580D01*
X187043141Y-109774281D01*
X186233763Y-109792072D01*
X185568627Y-110067580D01*
X185421054Y-110375962D01*
X181595290Y-110375962D01*
X181447717Y-110067580D01*
X180693141Y-109774281D01*
X179883763Y-109792072D01*
X179218627Y-110067580D01*
X179071054Y-110375962D01*
X175238591Y-110375962D01*
X175097717Y-110081580D01*
X174343141Y-109788281D01*
X173533763Y-109806072D01*
X172868627Y-110081580D01*
X172721054Y-110389962D01*
X168895290Y-110389962D01*
X168747717Y-110081580D01*
X167993141Y-109788281D01*
X167183763Y-109806072D01*
X166518627Y-110081580D01*
X166371054Y-110389962D01*
X162545290Y-110389962D01*
X162397717Y-110081580D01*
X161643141Y-109788281D01*
X160833763Y-109806072D01*
X160168627Y-110081580D01*
X160021054Y-110389962D01*
X156195290Y-110389962D01*
X156047717Y-110081580D01*
X155293141Y-109788281D01*
X154483763Y-109806072D01*
X153818627Y-110081580D01*
X153671054Y-110389962D01*
X149845290Y-110389962D01*
X149697717Y-110081580D01*
X148943141Y-109788281D01*
X148133763Y-109806072D01*
X147468627Y-110081580D01*
X147321054Y-110389962D01*
X143495290Y-110389962D01*
X143347717Y-110081580D01*
X142593141Y-109788281D01*
X141783763Y-109806072D01*
X141118627Y-110081580D01*
X140971054Y-110389962D01*
X111200000Y-110389962D01*
X111200000Y-96591686D01*
X140158304Y-96591686D01*
X140316244Y-97385704D01*
X140766019Y-98058839D01*
X141439154Y-98508614D01*
X142032742Y-98626686D01*
X142433602Y-98626686D01*
X143027190Y-98508614D01*
X143700325Y-98058839D01*
X144150100Y-97385704D01*
X144308040Y-96591686D01*
X146508304Y-96591686D01*
X146666244Y-97385704D01*
X147116019Y-98058839D01*
X147789154Y-98508614D01*
X148382742Y-98626686D01*
X148783602Y-98626686D01*
X149377190Y-98508614D01*
X150050325Y-98058839D01*
X150500100Y-97385704D01*
X150658040Y-96591686D01*
X152858304Y-96591686D01*
X153016244Y-97385704D01*
X153466019Y-98058839D01*
X154139154Y-98508614D01*
X154732742Y-98626686D01*
X155133602Y-98626686D01*
X155727190Y-98508614D01*
X156400325Y-98058839D01*
X156850100Y-97385704D01*
X157008040Y-96591686D01*
X159208304Y-96591686D01*
X159366244Y-97385704D01*
X159816019Y-98058839D01*
X160489154Y-98508614D01*
X161082742Y-98626686D01*
X161483602Y-98626686D01*
X162077190Y-98508614D01*
X162750325Y-98058839D01*
X163200100Y-97385704D01*
X163358040Y-96591686D01*
X165558304Y-96591686D01*
X165716244Y-97385704D01*
X166166019Y-98058839D01*
X166839154Y-98508614D01*
X167432742Y-98626686D01*
X167833602Y-98626686D01*
X168427190Y-98508614D01*
X169100325Y-98058839D01*
X169550100Y-97385704D01*
X169708040Y-96591686D01*
X171908304Y-96591686D01*
X172066244Y-97385704D01*
X172516019Y-98058839D01*
X173189154Y-98508614D01*
X173782742Y-98626686D01*
X174183602Y-98626686D01*
X174777190Y-98508614D01*
X175450325Y-98058839D01*
X175900100Y-97385704D01*
X176058040Y-96591686D01*
X176055256Y-96577686D01*
X178258304Y-96577686D01*
X178416244Y-97371704D01*
X178866019Y-98044839D01*
X179539154Y-98494614D01*
X180132742Y-98612686D01*
X180533602Y-98612686D01*
X181127190Y-98494614D01*
X181800325Y-98044839D01*
X182250100Y-97371704D01*
X182408040Y-96577686D01*
X184608304Y-96577686D01*
X184766244Y-97371704D01*
X185216019Y-98044839D01*
X185889154Y-98494614D01*
X186482742Y-98612686D01*
X186883602Y-98612686D01*
X187477190Y-98494614D01*
X188150325Y-98044839D01*
X188600100Y-97371704D01*
X188758040Y-96577686D01*
X190958304Y-96577686D01*
X191116244Y-97371704D01*
X191566019Y-98044839D01*
X192239154Y-98494614D01*
X192832742Y-98612686D01*
X193233602Y-98612686D01*
X193827190Y-98494614D01*
X194500325Y-98044839D01*
X194950100Y-97371704D01*
X195108040Y-96577686D01*
X197308304Y-96577686D01*
X197466244Y-97371704D01*
X197916019Y-98044839D01*
X198589154Y-98494614D01*
X199182742Y-98612686D01*
X199583602Y-98612686D01*
X200177190Y-98494614D01*
X200850325Y-98044839D01*
X201300100Y-97371704D01*
X201458040Y-96577686D01*
X201300100Y-95783668D01*
X200850325Y-95110533D01*
X200177190Y-94660758D01*
X199583602Y-94542686D01*
X199182742Y-94542686D01*
X198589154Y-94660758D01*
X197916019Y-95110533D01*
X197466244Y-95783668D01*
X197308304Y-96577686D01*
X195108040Y-96577686D01*
X194950100Y-95783668D01*
X194500325Y-95110533D01*
X193827190Y-94660758D01*
X193233602Y-94542686D01*
X192832742Y-94542686D01*
X192239154Y-94660758D01*
X191566019Y-95110533D01*
X191116244Y-95783668D01*
X190958304Y-96577686D01*
X188758040Y-96577686D01*
X188600100Y-95783668D01*
X188150325Y-95110533D01*
X187477190Y-94660758D01*
X186883602Y-94542686D01*
X186482742Y-94542686D01*
X185889154Y-94660758D01*
X185216019Y-95110533D01*
X184766244Y-95783668D01*
X184608304Y-96577686D01*
X182408040Y-96577686D01*
X182250100Y-95783668D01*
X181800325Y-95110533D01*
X181127190Y-94660758D01*
X180533602Y-94542686D01*
X180132742Y-94542686D01*
X179539154Y-94660758D01*
X178866019Y-95110533D01*
X178416244Y-95783668D01*
X178258304Y-96577686D01*
X176055256Y-96577686D01*
X175900100Y-95797668D01*
X175450325Y-95124533D01*
X174777190Y-94674758D01*
X174183602Y-94556686D01*
X173782742Y-94556686D01*
X173189154Y-94674758D01*
X172516019Y-95124533D01*
X172066244Y-95797668D01*
X171908304Y-96591686D01*
X169708040Y-96591686D01*
X169550100Y-95797668D01*
X169100325Y-95124533D01*
X168427190Y-94674758D01*
X167833602Y-94556686D01*
X167432742Y-94556686D01*
X166839154Y-94674758D01*
X166166019Y-95124533D01*
X165716244Y-95797668D01*
X165558304Y-96591686D01*
X163358040Y-96591686D01*
X163200100Y-95797668D01*
X162750325Y-95124533D01*
X162077190Y-94674758D01*
X161483602Y-94556686D01*
X161082742Y-94556686D01*
X160489154Y-94674758D01*
X159816019Y-95124533D01*
X159366244Y-95797668D01*
X159208304Y-96591686D01*
X157008040Y-96591686D01*
X156850100Y-95797668D01*
X156400325Y-95124533D01*
X155727190Y-94674758D01*
X155133602Y-94556686D01*
X154732742Y-94556686D01*
X154139154Y-94674758D01*
X153466019Y-95124533D01*
X153016244Y-95797668D01*
X152858304Y-96591686D01*
X150658040Y-96591686D01*
X150500100Y-95797668D01*
X150050325Y-95124533D01*
X149377190Y-94674758D01*
X148783602Y-94556686D01*
X148382742Y-94556686D01*
X147789154Y-94674758D01*
X147116019Y-95124533D01*
X146666244Y-95797668D01*
X146508304Y-96591686D01*
X144308040Y-96591686D01*
X144150100Y-95797668D01*
X143700325Y-95124533D01*
X143027190Y-94674758D01*
X142433602Y-94556686D01*
X142032742Y-94556686D01*
X141439154Y-94674758D01*
X140766019Y-95124533D01*
X140316244Y-95797668D01*
X140158304Y-96591686D01*
X111200000Y-96591686D01*
X111200000Y-83782119D01*
X117103000Y-83782119D01*
X117103000Y-84337881D01*
X117315680Y-84851337D01*
X117708663Y-85244320D01*
X118222119Y-85457000D01*
X118777881Y-85457000D01*
X119291337Y-85244320D01*
X119684320Y-84851337D01*
X119770000Y-84644487D01*
X119855680Y-84851337D01*
X120248663Y-85244320D01*
X120762119Y-85457000D01*
X121317881Y-85457000D01*
X121831337Y-85244320D01*
X122224320Y-84851337D01*
X122310000Y-84644487D01*
X122395680Y-84851337D01*
X122788663Y-85244320D01*
X123302119Y-85457000D01*
X123857881Y-85457000D01*
X124371337Y-85244320D01*
X124575444Y-85040213D01*
X125319392Y-85040213D01*
X125388857Y-85282397D01*
X125912302Y-85469144D01*
X126467368Y-85441362D01*
X126851143Y-85282397D01*
X126920608Y-85040213D01*
X126120000Y-84239605D01*
X125319392Y-85040213D01*
X124575444Y-85040213D01*
X124764320Y-84851337D01*
X124843428Y-84660353D01*
X124897603Y-84791143D01*
X125139787Y-84860608D01*
X125940395Y-84060000D01*
X126299605Y-84060000D01*
X127100213Y-84860608D01*
X127342397Y-84791143D01*
X127529144Y-84267698D01*
X127501362Y-83712632D01*
X127342397Y-83328857D01*
X127100213Y-83259392D01*
X126299605Y-84060000D01*
X125940395Y-84060000D01*
X125139787Y-83259392D01*
X124897603Y-83328857D01*
X124847465Y-83469393D01*
X124764320Y-83268663D01*
X124575444Y-83079787D01*
X125319392Y-83079787D01*
X126120000Y-83880395D01*
X126920608Y-83079787D01*
X126851143Y-82837603D01*
X126327698Y-82650856D01*
X125772632Y-82678638D01*
X125388857Y-82837603D01*
X125319392Y-83079787D01*
X124575444Y-83079787D01*
X124371337Y-82875680D01*
X123857881Y-82663000D01*
X123302119Y-82663000D01*
X122788663Y-82875680D01*
X122395680Y-83268663D01*
X122310000Y-83475513D01*
X122224320Y-83268663D01*
X121831337Y-82875680D01*
X121317881Y-82663000D01*
X120762119Y-82663000D01*
X120248663Y-82875680D01*
X119855680Y-83268663D01*
X119770000Y-83475513D01*
X119684320Y-83268663D01*
X119291337Y-82875680D01*
X118777881Y-82663000D01*
X118222119Y-82663000D01*
X117708663Y-82875680D01*
X117315680Y-83268663D01*
X117103000Y-83782119D01*
X111200000Y-83782119D01*
X111200000Y-79010000D01*
X169850060Y-79010000D01*
X169850060Y-81010000D01*
X169899343Y-81257765D01*
X170039691Y-81467809D01*
X170249735Y-81608157D01*
X170497500Y-81657440D01*
X172402500Y-81657440D01*
X172650265Y-81608157D01*
X172860309Y-81467809D01*
X172978509Y-81290912D01*
X173370590Y-81552891D01*
X173990000Y-81676100D01*
X174609411Y-81552891D01*
X175134523Y-81202023D01*
X175260000Y-81014233D01*
X175385477Y-81202023D01*
X175910590Y-81552891D01*
X176530000Y-81676100D01*
X177149411Y-81552891D01*
X177674523Y-81202023D01*
X178025391Y-80676910D01*
X178117500Y-80213849D01*
X178117500Y-79806150D01*
X178025391Y-79343089D01*
X177674523Y-78817977D01*
X177149410Y-78467109D01*
X176530000Y-78343900D01*
X175910589Y-78467109D01*
X175385477Y-78817977D01*
X175260000Y-79005767D01*
X175134523Y-78817977D01*
X174609410Y-78467109D01*
X173990000Y-78343900D01*
X173370589Y-78467109D01*
X172978509Y-78729088D01*
X172860309Y-78552191D01*
X172650265Y-78411843D01*
X172402500Y-78362560D01*
X170497500Y-78362560D01*
X170249735Y-78411843D01*
X170039691Y-78552191D01*
X169899343Y-78762235D01*
X169850060Y-79010000D01*
X111200000Y-79010000D01*
X111200000Y-76162119D01*
X117103000Y-76162119D01*
X117103000Y-76717881D01*
X117315680Y-77231337D01*
X117708663Y-77624320D01*
X118222119Y-77837000D01*
X118777881Y-77837000D01*
X119291337Y-77624320D01*
X119684320Y-77231337D01*
X119770000Y-77024487D01*
X119855680Y-77231337D01*
X120248663Y-77624320D01*
X120762119Y-77837000D01*
X121317881Y-77837000D01*
X121831337Y-77624320D01*
X122224320Y-77231337D01*
X122310000Y-77024487D01*
X122395680Y-77231337D01*
X122788663Y-77624320D01*
X123302119Y-77837000D01*
X123857881Y-77837000D01*
X124371337Y-77624320D01*
X124764320Y-77231337D01*
X124850000Y-77024487D01*
X124935680Y-77231337D01*
X125328663Y-77624320D01*
X125842119Y-77837000D01*
X126397881Y-77837000D01*
X126911337Y-77624320D01*
X127304320Y-77231337D01*
X127517000Y-76717881D01*
X127517000Y-76162119D01*
X127346296Y-75750000D01*
X135555908Y-75750000D01*
X135671161Y-76329418D01*
X135999375Y-76820625D01*
X136490582Y-77148839D01*
X136923744Y-77235000D01*
X137216256Y-77235000D01*
X137649418Y-77148839D01*
X138140625Y-76820625D01*
X138353843Y-76501522D01*
X138414817Y-76631358D01*
X138843076Y-77021645D01*
X139253110Y-77191476D01*
X139483000Y-77070155D01*
X139483000Y-75877000D01*
X139463000Y-75877000D01*
X139463000Y-75623000D01*
X139483000Y-75623000D01*
X139483000Y-74429845D01*
X139737000Y-74429845D01*
X139737000Y-75623000D01*
X139757000Y-75623000D01*
X139757000Y-75877000D01*
X139737000Y-75877000D01*
X139737000Y-77070155D01*
X139966890Y-77191476D01*
X140376924Y-77021645D01*
X140805183Y-76631358D01*
X140866157Y-76501522D01*
X141079375Y-76820625D01*
X141570582Y-77148839D01*
X142003744Y-77235000D01*
X142296256Y-77235000D01*
X142729418Y-77148839D01*
X143220625Y-76820625D01*
X143420000Y-76522239D01*
X143619375Y-76820625D01*
X144110582Y-77148839D01*
X144543744Y-77235000D01*
X144836256Y-77235000D01*
X145269418Y-77148839D01*
X145760625Y-76820625D01*
X145960000Y-76522239D01*
X146159375Y-76820625D01*
X146650582Y-77148839D01*
X147083744Y-77235000D01*
X147376256Y-77235000D01*
X147809418Y-77148839D01*
X148300625Y-76820625D01*
X148312816Y-76802381D01*
X148321843Y-76847765D01*
X148462191Y-77057809D01*
X148672235Y-77198157D01*
X148920000Y-77247440D01*
X150620000Y-77247440D01*
X150867765Y-77198157D01*
X151077809Y-77057809D01*
X151218157Y-76847765D01*
X151218426Y-76846410D01*
X196255000Y-76846410D01*
X196255000Y-78093590D01*
X196732276Y-79245835D01*
X197614165Y-80127724D01*
X198766410Y-80605000D01*
X200013590Y-80605000D01*
X201165835Y-80127724D01*
X202047724Y-79245835D01*
X202525000Y-78093590D01*
X202525000Y-76846410D01*
X202047724Y-75694165D01*
X201165835Y-74812276D01*
X200013590Y-74335000D01*
X198766410Y-74335000D01*
X197614165Y-74812276D01*
X196732276Y-75694165D01*
X196255000Y-76846410D01*
X151218426Y-76846410D01*
X151267440Y-76600000D01*
X151267440Y-74900000D01*
X151218157Y-74652235D01*
X151077809Y-74442191D01*
X150867765Y-74301843D01*
X150620000Y-74252560D01*
X148920000Y-74252560D01*
X148672235Y-74301843D01*
X148462191Y-74442191D01*
X148321843Y-74652235D01*
X148312816Y-74697619D01*
X148300625Y-74679375D01*
X147809418Y-74351161D01*
X147376256Y-74265000D01*
X147083744Y-74265000D01*
X146650582Y-74351161D01*
X146159375Y-74679375D01*
X145960000Y-74977761D01*
X145760625Y-74679375D01*
X145269418Y-74351161D01*
X144836256Y-74265000D01*
X144543744Y-74265000D01*
X144110582Y-74351161D01*
X143619375Y-74679375D01*
X143420000Y-74977761D01*
X143220625Y-74679375D01*
X142729418Y-74351161D01*
X142296256Y-74265000D01*
X142003744Y-74265000D01*
X141570582Y-74351161D01*
X141079375Y-74679375D01*
X140866157Y-74998478D01*
X140805183Y-74868642D01*
X140376924Y-74478355D01*
X139966890Y-74308524D01*
X139737000Y-74429845D01*
X139483000Y-74429845D01*
X139253110Y-74308524D01*
X138843076Y-74478355D01*
X138414817Y-74868642D01*
X138353843Y-74998478D01*
X138140625Y-74679375D01*
X137649418Y-74351161D01*
X137216256Y-74265000D01*
X136923744Y-74265000D01*
X136490582Y-74351161D01*
X135999375Y-74679375D01*
X135671161Y-75170582D01*
X135555908Y-75750000D01*
X127346296Y-75750000D01*
X127304320Y-75648663D01*
X126911337Y-75255680D01*
X126397881Y-75043000D01*
X125842119Y-75043000D01*
X125328663Y-75255680D01*
X124935680Y-75648663D01*
X124850000Y-75855513D01*
X124764320Y-75648663D01*
X124371337Y-75255680D01*
X123857881Y-75043000D01*
X123302119Y-75043000D01*
X122788663Y-75255680D01*
X122395680Y-75648663D01*
X122310000Y-75855513D01*
X122224320Y-75648663D01*
X121831337Y-75255680D01*
X121317881Y-75043000D01*
X120762119Y-75043000D01*
X120248663Y-75255680D01*
X119855680Y-75648663D01*
X119770000Y-75855513D01*
X119684320Y-75648663D01*
X119291337Y-75255680D01*
X118777881Y-75043000D01*
X118222119Y-75043000D01*
X117708663Y-75255680D01*
X117315680Y-75648663D01*
X117103000Y-76162119D01*
X111200000Y-76162119D01*
X111200000Y-73100000D01*
X203760000Y-73100000D01*
X203760001Y-126290000D01*
X203760001Y-126290000D01*
G37*
X203760001Y-126290000D02*
X111200000Y-126290000D01*
X111200000Y-124155880D01*
X197333725Y-124155880D01*
X197615421Y-124578564D01*
X198767892Y-125055294D01*
X200015072Y-125054705D01*
X201164579Y-124578564D01*
X201446275Y-124155880D01*
X199390000Y-122099605D01*
X197333725Y-124155880D01*
X111200000Y-124155880D01*
X111200000Y-120777000D01*
X116355000Y-120777000D01*
X116355000Y-121927000D01*
X116528058Y-122543020D01*
X116923683Y-123045922D01*
X117481645Y-123359144D01*
X117609566Y-123390124D01*
X117863000Y-123270777D01*
X117863000Y-120777000D01*
X118117000Y-120777000D01*
X118117000Y-123270777D01*
X118370434Y-123390124D01*
X118498355Y-123359144D01*
X119056317Y-123045922D01*
X119451942Y-122543020D01*
X119625000Y-121927000D01*
X119625000Y-120777000D01*
X118117000Y-120777000D01*
X117863000Y-120777000D01*
X116355000Y-120777000D01*
X111200000Y-120777000D01*
X111200000Y-119373000D01*
X116355000Y-119373000D01*
X116355000Y-120523000D01*
X117863000Y-120523000D01*
X117863000Y-118029223D01*
X118117000Y-118029223D01*
X118117000Y-120523000D01*
X119625000Y-120523000D01*
X119625000Y-119373000D01*
X119615440Y-119338970D01*
X122655000Y-119338970D01*
X122655001Y-121961031D01*
X122749865Y-122437945D01*
X123111232Y-122978769D01*
X123652056Y-123340136D01*
X124290000Y-123467031D01*
X124927945Y-123340136D01*
X125468769Y-122978769D01*
X125830136Y-122437945D01*
X125925000Y-121961031D01*
X125925000Y-120225322D01*
X126395000Y-120225322D01*
X126395000Y-121074678D01*
X126720034Y-121859380D01*
X127320620Y-122459966D01*
X128105322Y-122785000D01*
X128954678Y-122785000D01*
X129739380Y-122459966D01*
X130339966Y-121859380D01*
X130665000Y-121074678D01*
X130665000Y-120225322D01*
X148995000Y-120225322D01*
X148995000Y-121074678D01*
X149320034Y-121859380D01*
X149920620Y-122459966D01*
X150705322Y-122785000D01*
X151554678Y-122785000D01*
X152339380Y-122459966D01*
X152939966Y-121859380D01*
X153172541Y-121297892D01*
X196254706Y-121297892D01*
X196255295Y-122545072D01*
X196731436Y-123694579D01*
X197154120Y-123976275D01*
X199210395Y-121920000D01*
X199569605Y-121920000D01*
X201625880Y-123976275D01*
X202048564Y-123694579D01*
X202525294Y-122542108D01*
X202524705Y-121294928D01*
X202048564Y-120145421D01*
X201625880Y-119863725D01*
X199569605Y-121920000D01*
X199210395Y-121920000D01*
X197154120Y-119863725D01*
X196731436Y-120145421D01*
X196254706Y-121297892D01*
X153172541Y-121297892D01*
X153265000Y-121074678D01*
X153265000Y-120225322D01*
X153040827Y-119684120D01*
X197333725Y-119684120D01*
X199390000Y-121740395D01*
X201446275Y-119684120D01*
X201164579Y-119261436D01*
X200012108Y-118784706D01*
X198764928Y-118785295D01*
X197615421Y-119261436D01*
X197333725Y-119684120D01*
X153040827Y-119684120D01*
X152939966Y-119440620D01*
X152339380Y-118840034D01*
X151554678Y-118515000D01*
X150705322Y-118515000D01*
X149920620Y-118840034D01*
X149320034Y-119440620D01*
X148995000Y-120225322D01*
X130665000Y-120225322D01*
X130339966Y-119440620D01*
X129739380Y-118840034D01*
X128954678Y-118515000D01*
X128105322Y-118515000D01*
X127320620Y-118840034D01*
X126720034Y-119440620D01*
X126395000Y-120225322D01*
X125925000Y-120225322D01*
X125925000Y-119338969D01*
X125830136Y-118862055D01*
X125468769Y-118321231D01*
X124927944Y-117959864D01*
X124290000Y-117832969D01*
X123652055Y-117959864D01*
X123111231Y-118321231D01*
X122749864Y-118862056D01*
X122655000Y-119338970D01*
X119615440Y-119338970D01*
X119451942Y-118756980D01*
X119056317Y-118254078D01*
X118498355Y-117940856D01*
X118370434Y-117909876D01*
X118117000Y-118029223D01*
X117863000Y-118029223D01*
X117609566Y-117909876D01*
X117481645Y-117940856D01*
X116923683Y-118254078D01*
X116528058Y-118756980D01*
X116355000Y-119373000D01*
X111200000Y-119373000D01*
X111200000Y-116030434D01*
X118549876Y-116030434D01*
X118580856Y-116158355D01*
X118894078Y-116716317D01*
X119396980Y-117111942D01*
X120013000Y-117285000D01*
X121163000Y-117285000D01*
X121163000Y-115777000D01*
X121417000Y-115777000D01*
X121417000Y-117285000D01*
X122567000Y-117285000D01*
X123183020Y-117111942D01*
X123685922Y-116716317D01*
X123999144Y-116158355D01*
X124030124Y-116030434D01*
X123910777Y-115777000D01*
X121417000Y-115777000D01*
X121163000Y-115777000D01*
X118669223Y-115777000D01*
X118549876Y-116030434D01*
X111200000Y-116030434D01*
X111200000Y-115269566D01*
X118549876Y-115269566D01*
X118669223Y-115523000D01*
X121163000Y-115523000D01*
X121163000Y-114015000D01*
X121417000Y-114015000D01*
X121417000Y-115523000D01*
X123910777Y-115523000D01*
X124030124Y-115269566D01*
X123999144Y-115141645D01*
X123685922Y-114583683D01*
X123183020Y-114188058D01*
X122567000Y-114015000D01*
X121417000Y-114015000D01*
X121163000Y-114015000D01*
X120013000Y-114015000D01*
X119396980Y-114188058D01*
X118894078Y-114583683D01*
X118580856Y-115141645D01*
X118549876Y-115269566D01*
X111200000Y-115269566D01*
X111200000Y-113273410D01*
X140971054Y-113273410D01*
X141118627Y-113581792D01*
X141873203Y-113875091D01*
X142682581Y-113857300D01*
X143347717Y-113581792D01*
X143495290Y-113273410D01*
X147321054Y-113273410D01*
X147468627Y-113581792D01*
X148223203Y-113875091D01*
X149032581Y-113857300D01*
X149697717Y-113581792D01*
X149845290Y-113273410D01*
X153671054Y-113273410D01*
X153818627Y-113581792D01*
X154573203Y-113875091D01*
X155382581Y-113857300D01*
X156047717Y-113581792D01*
X156195290Y-113273410D01*
X160021054Y-113273410D01*
X160168627Y-113581792D01*
X160923203Y-113875091D01*
X161732581Y-113857300D01*
X162397717Y-113581792D01*
X162545290Y-113273410D01*
X166371054Y-113273410D01*
X166518627Y-113581792D01*
X167273203Y-113875091D01*
X168082581Y-113857300D01*
X168747717Y-113581792D01*
X168895290Y-113273410D01*
X172721054Y-113273410D01*
X172868627Y-113581792D01*
X173623203Y-113875091D01*
X174432581Y-113857300D01*
X175097717Y-113581792D01*
X175245290Y-113273410D01*
X175231291Y-113259410D01*
X179071054Y-113259410D01*
X179218627Y-113567792D01*
X179973203Y-113861091D01*
X180782581Y-113843300D01*
X181447717Y-113567792D01*
X181595290Y-113259410D01*
X185421054Y-113259410D01*
X185568627Y-113567792D01*
X186323203Y-113861091D01*
X187132581Y-113843300D01*
X187797717Y-113567792D01*
X187945290Y-113259410D01*
X191771054Y-113259410D01*
X191918627Y-113567792D01*
X192673203Y-113861091D01*
X193482581Y-113843300D01*
X194147717Y-113567792D01*
X194295290Y-113259410D01*
X198121054Y-113259410D01*
X198268627Y-113567792D01*
X199023203Y-113861091D01*
X199832581Y-113843300D01*
X200497717Y-113567792D01*
X200645290Y-113259410D01*
X199383172Y-111997291D01*
X198121054Y-113259410D01*
X194295290Y-113259410D01*
X193033172Y-111997291D01*
X191771054Y-113259410D01*
X187945290Y-113259410D01*
X186683172Y-111997291D01*
X185421054Y-113259410D01*
X181595290Y-113259410D01*
X180333172Y-111997291D01*
X179071054Y-113259410D01*
X175231291Y-113259410D01*
X173983172Y-112011291D01*
X172721054Y-113273410D01*
X168895290Y-113273410D01*
X167633172Y-112011291D01*
X166371054Y-113273410D01*
X162545290Y-113273410D01*
X161283172Y-112011291D01*
X160021054Y-113273410D01*
X156195290Y-113273410D01*
X154933172Y-112011291D01*
X153671054Y-113273410D01*
X149845290Y-113273410D01*
X148583172Y-112011291D01*
X147321054Y-113273410D01*
X143495290Y-113273410D01*
X142233172Y-112011291D01*
X140971054Y-113273410D01*
X111200000Y-113273410D01*
X111200000Y-111471717D01*
X140189767Y-111471717D01*
X140207558Y-112281095D01*
X140483066Y-112946231D01*
X140791448Y-113093804D01*
X142053567Y-111831686D01*
X142412777Y-111831686D01*
X143674896Y-113093804D01*
X143983278Y-112946231D01*
X144276577Y-112191655D01*
X144260752Y-111471717D01*
X146539767Y-111471717D01*
X146557558Y-112281095D01*
X146833066Y-112946231D01*
X147141448Y-113093804D01*
X148403567Y-111831686D01*
X148762777Y-111831686D01*
X150024896Y-113093804D01*
X150333278Y-112946231D01*
X150626577Y-112191655D01*
X150610752Y-111471717D01*
X152889767Y-111471717D01*
X152907558Y-112281095D01*
X153183066Y-112946231D01*
X153491448Y-113093804D01*
X154753567Y-111831686D01*
X155112777Y-111831686D01*
X156374896Y-113093804D01*
X156683278Y-112946231D01*
X156976577Y-112191655D01*
X156960752Y-111471717D01*
X159239767Y-111471717D01*
X159257558Y-112281095D01*
X159533066Y-112946231D01*
X159841448Y-113093804D01*
X161103567Y-111831686D01*
X161462777Y-111831686D01*
X162724896Y-113093804D01*
X163033278Y-112946231D01*
X163326577Y-112191655D01*
X163310752Y-111471717D01*
X165589767Y-111471717D01*
X165607558Y-112281095D01*
X165883066Y-112946231D01*
X166191448Y-113093804D01*
X167453567Y-111831686D01*
X167812777Y-111831686D01*
X169074896Y-113093804D01*
X169383278Y-112946231D01*
X169676577Y-112191655D01*
X169660752Y-111471717D01*
X171939767Y-111471717D01*
X171957558Y-112281095D01*
X172233066Y-112946231D01*
X172541448Y-113093804D01*
X173803567Y-111831686D01*
X174162777Y-111831686D01*
X175424896Y-113093804D01*
X175733278Y-112946231D01*
X176026577Y-112191655D01*
X176010445Y-111457717D01*
X178289767Y-111457717D01*
X178307558Y-112267095D01*
X178583066Y-112932231D01*
X178891448Y-113079804D01*
X180153567Y-111817686D01*
X180512777Y-111817686D01*
X181774896Y-113079804D01*
X182083278Y-112932231D01*
X182376577Y-112177655D01*
X182360752Y-111457717D01*
X184639767Y-111457717D01*
X184657558Y-112267095D01*
X184933066Y-112932231D01*
X185241448Y-113079804D01*
X186503567Y-111817686D01*
X186862777Y-111817686D01*
X188124896Y-113079804D01*
X188433278Y-112932231D01*
X188726577Y-112177655D01*
X188710752Y-111457717D01*
X190989767Y-111457717D01*
X191007558Y-112267095D01*
X191283066Y-112932231D01*
X191591448Y-113079804D01*
X192853567Y-111817686D01*
X193212777Y-111817686D01*
X194474896Y-113079804D01*
X194783278Y-112932231D01*
X195076577Y-112177655D01*
X195060752Y-111457717D01*
X197339767Y-111457717D01*
X197357558Y-112267095D01*
X197633066Y-112932231D01*
X197941448Y-113079804D01*
X199203567Y-111817686D01*
X199562777Y-111817686D01*
X200824896Y-113079804D01*
X201133278Y-112932231D01*
X201426577Y-112177655D01*
X201408786Y-111368277D01*
X201133278Y-110703141D01*
X200824896Y-110555568D01*
X199562777Y-111817686D01*
X199203567Y-111817686D01*
X197941448Y-110555568D01*
X197633066Y-110703141D01*
X197339767Y-111457717D01*
X195060752Y-111457717D01*
X195058786Y-111368277D01*
X194783278Y-110703141D01*
X194474896Y-110555568D01*
X193212777Y-111817686D01*
X192853567Y-111817686D01*
X191591448Y-110555568D01*
X191283066Y-110703141D01*
X190989767Y-111457717D01*
X188710752Y-111457717D01*
X188708786Y-111368277D01*
X188433278Y-110703141D01*
X188124896Y-110555568D01*
X186862777Y-111817686D01*
X186503567Y-111817686D01*
X185241448Y-110555568D01*
X184933066Y-110703141D01*
X184639767Y-111457717D01*
X182360752Y-111457717D01*
X182358786Y-111368277D01*
X182083278Y-110703141D01*
X181774896Y-110555568D01*
X180512777Y-111817686D01*
X180153567Y-111817686D01*
X178891448Y-110555568D01*
X178583066Y-110703141D01*
X178289767Y-111457717D01*
X176010445Y-111457717D01*
X176008786Y-111382277D01*
X175733278Y-110717141D01*
X175424896Y-110569568D01*
X174162777Y-111831686D01*
X173803567Y-111831686D01*
X172541448Y-110569568D01*
X172233066Y-110717141D01*
X171939767Y-111471717D01*
X169660752Y-111471717D01*
X169658786Y-111382277D01*
X169383278Y-110717141D01*
X169074896Y-110569568D01*
X167812777Y-111831686D01*
X167453567Y-111831686D01*
X166191448Y-110569568D01*
X165883066Y-110717141D01*
X165589767Y-111471717D01*
X163310752Y-111471717D01*
X163308786Y-111382277D01*
X163033278Y-110717141D01*
X162724896Y-110569568D01*
X161462777Y-111831686D01*
X161103567Y-111831686D01*
X159841448Y-110569568D01*
X159533066Y-110717141D01*
X159239767Y-111471717D01*
X156960752Y-111471717D01*
X156958786Y-111382277D01*
X156683278Y-110717141D01*
X156374896Y-110569568D01*
X155112777Y-111831686D01*
X154753567Y-111831686D01*
X153491448Y-110569568D01*
X153183066Y-110717141D01*
X152889767Y-111471717D01*
X150610752Y-111471717D01*
X150608786Y-111382277D01*
X150333278Y-110717141D01*
X150024896Y-110569568D01*
X148762777Y-111831686D01*
X148403567Y-111831686D01*
X147141448Y-110569568D01*
X146833066Y-110717141D01*
X146539767Y-111471717D01*
X144260752Y-111471717D01*
X144258786Y-111382277D01*
X143983278Y-110717141D01*
X143674896Y-110569568D01*
X142412777Y-111831686D01*
X142053567Y-111831686D01*
X140791448Y-110569568D01*
X140483066Y-110717141D01*
X140189767Y-111471717D01*
X111200000Y-111471717D01*
X111200000Y-110389962D01*
X140971054Y-110389962D01*
X142233172Y-111652081D01*
X143495290Y-110389962D01*
X147321054Y-110389962D01*
X148583172Y-111652081D01*
X149845290Y-110389962D01*
X153671054Y-110389962D01*
X154933172Y-111652081D01*
X156195290Y-110389962D01*
X160021054Y-110389962D01*
X161283172Y-111652081D01*
X162545290Y-110389962D01*
X166371054Y-110389962D01*
X167633172Y-111652081D01*
X168895290Y-110389962D01*
X172721054Y-110389962D01*
X173983172Y-111652081D01*
X175245290Y-110389962D01*
X175238591Y-110375962D01*
X179071054Y-110375962D01*
X180333172Y-111638081D01*
X181595290Y-110375962D01*
X185421054Y-110375962D01*
X186683172Y-111638081D01*
X187945290Y-110375962D01*
X191771054Y-110375962D01*
X193033172Y-111638081D01*
X194295290Y-110375962D01*
X198121054Y-110375962D01*
X199383172Y-111638081D01*
X200645290Y-110375962D01*
X200497717Y-110067580D01*
X199743141Y-109774281D01*
X198933763Y-109792072D01*
X198268627Y-110067580D01*
X198121054Y-110375962D01*
X194295290Y-110375962D01*
X194147717Y-110067580D01*
X193393141Y-109774281D01*
X192583763Y-109792072D01*
X191918627Y-110067580D01*
X191771054Y-110375962D01*
X187945290Y-110375962D01*
X187797717Y-110067580D01*
X187043141Y-109774281D01*
X186233763Y-109792072D01*
X185568627Y-110067580D01*
X185421054Y-110375962D01*
X181595290Y-110375962D01*
X181447717Y-110067580D01*
X180693141Y-109774281D01*
X179883763Y-109792072D01*
X179218627Y-110067580D01*
X179071054Y-110375962D01*
X175238591Y-110375962D01*
X175097717Y-110081580D01*
X174343141Y-109788281D01*
X173533763Y-109806072D01*
X172868627Y-110081580D01*
X172721054Y-110389962D01*
X168895290Y-110389962D01*
X168747717Y-110081580D01*
X167993141Y-109788281D01*
X167183763Y-109806072D01*
X166518627Y-110081580D01*
X166371054Y-110389962D01*
X162545290Y-110389962D01*
X162397717Y-110081580D01*
X161643141Y-109788281D01*
X160833763Y-109806072D01*
X160168627Y-110081580D01*
X160021054Y-110389962D01*
X156195290Y-110389962D01*
X156047717Y-110081580D01*
X155293141Y-109788281D01*
X154483763Y-109806072D01*
X153818627Y-110081580D01*
X153671054Y-110389962D01*
X149845290Y-110389962D01*
X149697717Y-110081580D01*
X148943141Y-109788281D01*
X148133763Y-109806072D01*
X147468627Y-110081580D01*
X147321054Y-110389962D01*
X143495290Y-110389962D01*
X143347717Y-110081580D01*
X142593141Y-109788281D01*
X141783763Y-109806072D01*
X141118627Y-110081580D01*
X140971054Y-110389962D01*
X111200000Y-110389962D01*
X111200000Y-96591686D01*
X140158304Y-96591686D01*
X140316244Y-97385704D01*
X140766019Y-98058839D01*
X141439154Y-98508614D01*
X142032742Y-98626686D01*
X142433602Y-98626686D01*
X143027190Y-98508614D01*
X143700325Y-98058839D01*
X144150100Y-97385704D01*
X144308040Y-96591686D01*
X146508304Y-96591686D01*
X146666244Y-97385704D01*
X147116019Y-98058839D01*
X147789154Y-98508614D01*
X148382742Y-98626686D01*
X148783602Y-98626686D01*
X149377190Y-98508614D01*
X150050325Y-98058839D01*
X150500100Y-97385704D01*
X150658040Y-96591686D01*
X152858304Y-96591686D01*
X153016244Y-97385704D01*
X153466019Y-98058839D01*
X154139154Y-98508614D01*
X154732742Y-98626686D01*
X155133602Y-98626686D01*
X155727190Y-98508614D01*
X156400325Y-98058839D01*
X156850100Y-97385704D01*
X157008040Y-96591686D01*
X159208304Y-96591686D01*
X159366244Y-97385704D01*
X159816019Y-98058839D01*
X160489154Y-98508614D01*
X161082742Y-98626686D01*
X161483602Y-98626686D01*
X162077190Y-98508614D01*
X162750325Y-98058839D01*
X163200100Y-97385704D01*
X163358040Y-96591686D01*
X165558304Y-96591686D01*
X165716244Y-97385704D01*
X166166019Y-98058839D01*
X166839154Y-98508614D01*
X167432742Y-98626686D01*
X167833602Y-98626686D01*
X168427190Y-98508614D01*
X169100325Y-98058839D01*
X169550100Y-97385704D01*
X169708040Y-96591686D01*
X171908304Y-96591686D01*
X172066244Y-97385704D01*
X172516019Y-98058839D01*
X173189154Y-98508614D01*
X173782742Y-98626686D01*
X174183602Y-98626686D01*
X174777190Y-98508614D01*
X175450325Y-98058839D01*
X175900100Y-97385704D01*
X176058040Y-96591686D01*
X176055256Y-96577686D01*
X178258304Y-96577686D01*
X178416244Y-97371704D01*
X178866019Y-98044839D01*
X179539154Y-98494614D01*
X180132742Y-98612686D01*
X180533602Y-98612686D01*
X181127190Y-98494614D01*
X181800325Y-98044839D01*
X182250100Y-97371704D01*
X182408040Y-96577686D01*
X184608304Y-96577686D01*
X184766244Y-97371704D01*
X185216019Y-98044839D01*
X185889154Y-98494614D01*
X186482742Y-98612686D01*
X186883602Y-98612686D01*
X187477190Y-98494614D01*
X188150325Y-98044839D01*
X188600100Y-97371704D01*
X188758040Y-96577686D01*
X190958304Y-96577686D01*
X191116244Y-97371704D01*
X191566019Y-98044839D01*
X192239154Y-98494614D01*
X192832742Y-98612686D01*
X193233602Y-98612686D01*
X193827190Y-98494614D01*
X194500325Y-98044839D01*
X194950100Y-97371704D01*
X195108040Y-96577686D01*
X197308304Y-96577686D01*
X197466244Y-97371704D01*
X197916019Y-98044839D01*
X198589154Y-98494614D01*
X199182742Y-98612686D01*
X199583602Y-98612686D01*
X200177190Y-98494614D01*
X200850325Y-98044839D01*
X201300100Y-97371704D01*
X201458040Y-96577686D01*
X201300100Y-95783668D01*
X200850325Y-95110533D01*
X200177190Y-94660758D01*
X199583602Y-94542686D01*
X199182742Y-94542686D01*
X198589154Y-94660758D01*
X197916019Y-95110533D01*
X197466244Y-95783668D01*
X197308304Y-96577686D01*
X195108040Y-96577686D01*
X194950100Y-95783668D01*
X194500325Y-95110533D01*
X193827190Y-94660758D01*
X193233602Y-94542686D01*
X192832742Y-94542686D01*
X192239154Y-94660758D01*
X191566019Y-95110533D01*
X191116244Y-95783668D01*
X190958304Y-96577686D01*
X188758040Y-96577686D01*
X188600100Y-95783668D01*
X188150325Y-95110533D01*
X187477190Y-94660758D01*
X186883602Y-94542686D01*
X186482742Y-94542686D01*
X185889154Y-94660758D01*
X185216019Y-95110533D01*
X184766244Y-95783668D01*
X184608304Y-96577686D01*
X182408040Y-96577686D01*
X182250100Y-95783668D01*
X181800325Y-95110533D01*
X181127190Y-94660758D01*
X180533602Y-94542686D01*
X180132742Y-94542686D01*
X179539154Y-94660758D01*
X178866019Y-95110533D01*
X178416244Y-95783668D01*
X178258304Y-96577686D01*
X176055256Y-96577686D01*
X175900100Y-95797668D01*
X175450325Y-95124533D01*
X174777190Y-94674758D01*
X174183602Y-94556686D01*
X173782742Y-94556686D01*
X173189154Y-94674758D01*
X172516019Y-95124533D01*
X172066244Y-95797668D01*
X171908304Y-96591686D01*
X169708040Y-96591686D01*
X169550100Y-95797668D01*
X169100325Y-95124533D01*
X168427190Y-94674758D01*
X167833602Y-94556686D01*
X167432742Y-94556686D01*
X166839154Y-94674758D01*
X166166019Y-95124533D01*
X165716244Y-95797668D01*
X165558304Y-96591686D01*
X163358040Y-96591686D01*
X163200100Y-95797668D01*
X162750325Y-95124533D01*
X162077190Y-94674758D01*
X161483602Y-94556686D01*
X161082742Y-94556686D01*
X160489154Y-94674758D01*
X159816019Y-95124533D01*
X159366244Y-95797668D01*
X159208304Y-96591686D01*
X157008040Y-96591686D01*
X156850100Y-95797668D01*
X156400325Y-95124533D01*
X155727190Y-94674758D01*
X155133602Y-94556686D01*
X154732742Y-94556686D01*
X154139154Y-94674758D01*
X153466019Y-95124533D01*
X153016244Y-95797668D01*
X152858304Y-96591686D01*
X150658040Y-96591686D01*
X150500100Y-95797668D01*
X150050325Y-95124533D01*
X149377190Y-94674758D01*
X148783602Y-94556686D01*
X148382742Y-94556686D01*
X147789154Y-94674758D01*
X147116019Y-95124533D01*
X146666244Y-95797668D01*
X146508304Y-96591686D01*
X144308040Y-96591686D01*
X144150100Y-95797668D01*
X143700325Y-95124533D01*
X143027190Y-94674758D01*
X142433602Y-94556686D01*
X142032742Y-94556686D01*
X141439154Y-94674758D01*
X140766019Y-95124533D01*
X140316244Y-95797668D01*
X140158304Y-96591686D01*
X111200000Y-96591686D01*
X111200000Y-83782119D01*
X117103000Y-83782119D01*
X117103000Y-84337881D01*
X117315680Y-84851337D01*
X117708663Y-85244320D01*
X118222119Y-85457000D01*
X118777881Y-85457000D01*
X119291337Y-85244320D01*
X119684320Y-84851337D01*
X119770000Y-84644487D01*
X119855680Y-84851337D01*
X120248663Y-85244320D01*
X120762119Y-85457000D01*
X121317881Y-85457000D01*
X121831337Y-85244320D01*
X122224320Y-84851337D01*
X122310000Y-84644487D01*
X122395680Y-84851337D01*
X122788663Y-85244320D01*
X123302119Y-85457000D01*
X123857881Y-85457000D01*
X124371337Y-85244320D01*
X124575444Y-85040213D01*
X125319392Y-85040213D01*
X125388857Y-85282397D01*
X125912302Y-85469144D01*
X126467368Y-85441362D01*
X126851143Y-85282397D01*
X126920608Y-85040213D01*
X126120000Y-84239605D01*
X125319392Y-85040213D01*
X124575444Y-85040213D01*
X124764320Y-84851337D01*
X124843428Y-84660353D01*
X124897603Y-84791143D01*
X125139787Y-84860608D01*
X125940395Y-84060000D01*
X126299605Y-84060000D01*
X127100213Y-84860608D01*
X127342397Y-84791143D01*
X127529144Y-84267698D01*
X127501362Y-83712632D01*
X127342397Y-83328857D01*
X127100213Y-83259392D01*
X126299605Y-84060000D01*
X125940395Y-84060000D01*
X125139787Y-83259392D01*
X124897603Y-83328857D01*
X124847465Y-83469393D01*
X124764320Y-83268663D01*
X124575444Y-83079787D01*
X125319392Y-83079787D01*
X126120000Y-83880395D01*
X126920608Y-83079787D01*
X126851143Y-82837603D01*
X126327698Y-82650856D01*
X125772632Y-82678638D01*
X125388857Y-82837603D01*
X125319392Y-83079787D01*
X124575444Y-83079787D01*
X124371337Y-82875680D01*
X123857881Y-82663000D01*
X123302119Y-82663000D01*
X122788663Y-82875680D01*
X122395680Y-83268663D01*
X122310000Y-83475513D01*
X122224320Y-83268663D01*
X121831337Y-82875680D01*
X121317881Y-82663000D01*
X120762119Y-82663000D01*
X120248663Y-82875680D01*
X119855680Y-83268663D01*
X119770000Y-83475513D01*
X119684320Y-83268663D01*
X119291337Y-82875680D01*
X118777881Y-82663000D01*
X118222119Y-82663000D01*
X117708663Y-82875680D01*
X117315680Y-83268663D01*
X117103000Y-83782119D01*
X111200000Y-83782119D01*
X111200000Y-79010000D01*
X169850060Y-79010000D01*
X169850060Y-81010000D01*
X169899343Y-81257765D01*
X170039691Y-81467809D01*
X170249735Y-81608157D01*
X170497500Y-81657440D01*
X172402500Y-81657440D01*
X172650265Y-81608157D01*
X172860309Y-81467809D01*
X172978509Y-81290912D01*
X173370590Y-81552891D01*
X173990000Y-81676100D01*
X174609411Y-81552891D01*
X175134523Y-81202023D01*
X175260000Y-81014233D01*
X175385477Y-81202023D01*
X175910590Y-81552891D01*
X176530000Y-81676100D01*
X177149411Y-81552891D01*
X177674523Y-81202023D01*
X178025391Y-80676910D01*
X178117500Y-80213849D01*
X178117500Y-79806150D01*
X178025391Y-79343089D01*
X177674523Y-78817977D01*
X177149410Y-78467109D01*
X176530000Y-78343900D01*
X175910589Y-78467109D01*
X175385477Y-78817977D01*
X175260000Y-79005767D01*
X175134523Y-78817977D01*
X174609410Y-78467109D01*
X173990000Y-78343900D01*
X173370589Y-78467109D01*
X172978509Y-78729088D01*
X172860309Y-78552191D01*
X172650265Y-78411843D01*
X172402500Y-78362560D01*
X170497500Y-78362560D01*
X170249735Y-78411843D01*
X170039691Y-78552191D01*
X169899343Y-78762235D01*
X169850060Y-79010000D01*
X111200000Y-79010000D01*
X111200000Y-76162119D01*
X117103000Y-76162119D01*
X117103000Y-76717881D01*
X117315680Y-77231337D01*
X117708663Y-77624320D01*
X118222119Y-77837000D01*
X118777881Y-77837000D01*
X119291337Y-77624320D01*
X119684320Y-77231337D01*
X119770000Y-77024487D01*
X119855680Y-77231337D01*
X120248663Y-77624320D01*
X120762119Y-77837000D01*
X121317881Y-77837000D01*
X121831337Y-77624320D01*
X122224320Y-77231337D01*
X122310000Y-77024487D01*
X122395680Y-77231337D01*
X122788663Y-77624320D01*
X123302119Y-77837000D01*
X123857881Y-77837000D01*
X124371337Y-77624320D01*
X124764320Y-77231337D01*
X124850000Y-77024487D01*
X124935680Y-77231337D01*
X125328663Y-77624320D01*
X125842119Y-77837000D01*
X126397881Y-77837000D01*
X126911337Y-77624320D01*
X127304320Y-77231337D01*
X127517000Y-76717881D01*
X127517000Y-76162119D01*
X127346296Y-75750000D01*
X135555908Y-75750000D01*
X135671161Y-76329418D01*
X135999375Y-76820625D01*
X136490582Y-77148839D01*
X136923744Y-77235000D01*
X137216256Y-77235000D01*
X137649418Y-77148839D01*
X138140625Y-76820625D01*
X138353843Y-76501522D01*
X138414817Y-76631358D01*
X138843076Y-77021645D01*
X139253110Y-77191476D01*
X139483000Y-77070155D01*
X139483000Y-75877000D01*
X139463000Y-75877000D01*
X139463000Y-75623000D01*
X139483000Y-75623000D01*
X139483000Y-74429845D01*
X139737000Y-74429845D01*
X139737000Y-75623000D01*
X139757000Y-75623000D01*
X139757000Y-75877000D01*
X139737000Y-75877000D01*
X139737000Y-77070155D01*
X139966890Y-77191476D01*
X140376924Y-77021645D01*
X140805183Y-76631358D01*
X140866157Y-76501522D01*
X141079375Y-76820625D01*
X141570582Y-77148839D01*
X142003744Y-77235000D01*
X142296256Y-77235000D01*
X142729418Y-77148839D01*
X143220625Y-76820625D01*
X143420000Y-76522239D01*
X143619375Y-76820625D01*
X144110582Y-77148839D01*
X144543744Y-77235000D01*
X144836256Y-77235000D01*
X145269418Y-77148839D01*
X145760625Y-76820625D01*
X145960000Y-76522239D01*
X146159375Y-76820625D01*
X146650582Y-77148839D01*
X147083744Y-77235000D01*
X147376256Y-77235000D01*
X147809418Y-77148839D01*
X148300625Y-76820625D01*
X148312816Y-76802381D01*
X148321843Y-76847765D01*
X148462191Y-77057809D01*
X148672235Y-77198157D01*
X148920000Y-77247440D01*
X150620000Y-77247440D01*
X150867765Y-77198157D01*
X151077809Y-77057809D01*
X151218157Y-76847765D01*
X151218426Y-76846410D01*
X196255000Y-76846410D01*
X196255000Y-78093590D01*
X196732276Y-79245835D01*
X197614165Y-80127724D01*
X198766410Y-80605000D01*
X200013590Y-80605000D01*
X201165835Y-80127724D01*
X202047724Y-79245835D01*
X202525000Y-78093590D01*
X202525000Y-76846410D01*
X202047724Y-75694165D01*
X201165835Y-74812276D01*
X200013590Y-74335000D01*
X198766410Y-74335000D01*
X197614165Y-74812276D01*
X196732276Y-75694165D01*
X196255000Y-76846410D01*
X151218426Y-76846410D01*
X151267440Y-76600000D01*
X151267440Y-74900000D01*
X151218157Y-74652235D01*
X151077809Y-74442191D01*
X150867765Y-74301843D01*
X150620000Y-74252560D01*
X148920000Y-74252560D01*
X148672235Y-74301843D01*
X148462191Y-74442191D01*
X148321843Y-74652235D01*
X148312816Y-74697619D01*
X148300625Y-74679375D01*
X147809418Y-74351161D01*
X147376256Y-74265000D01*
X147083744Y-74265000D01*
X146650582Y-74351161D01*
X146159375Y-74679375D01*
X145960000Y-74977761D01*
X145760625Y-74679375D01*
X145269418Y-74351161D01*
X144836256Y-74265000D01*
X144543744Y-74265000D01*
X144110582Y-74351161D01*
X143619375Y-74679375D01*
X143420000Y-74977761D01*
X143220625Y-74679375D01*
X142729418Y-74351161D01*
X142296256Y-74265000D01*
X142003744Y-74265000D01*
X141570582Y-74351161D01*
X141079375Y-74679375D01*
X140866157Y-74998478D01*
X140805183Y-74868642D01*
X140376924Y-74478355D01*
X139966890Y-74308524D01*
X139737000Y-74429845D01*
X139483000Y-74429845D01*
X139253110Y-74308524D01*
X138843076Y-74478355D01*
X138414817Y-74868642D01*
X138353843Y-74998478D01*
X138140625Y-74679375D01*
X137649418Y-74351161D01*
X137216256Y-74265000D01*
X136923744Y-74265000D01*
X136490582Y-74351161D01*
X135999375Y-74679375D01*
X135671161Y-75170582D01*
X135555908Y-75750000D01*
X127346296Y-75750000D01*
X127304320Y-75648663D01*
X126911337Y-75255680D01*
X126397881Y-75043000D01*
X125842119Y-75043000D01*
X125328663Y-75255680D01*
X124935680Y-75648663D01*
X124850000Y-75855513D01*
X124764320Y-75648663D01*
X124371337Y-75255680D01*
X123857881Y-75043000D01*
X123302119Y-75043000D01*
X122788663Y-75255680D01*
X122395680Y-75648663D01*
X122310000Y-75855513D01*
X122224320Y-75648663D01*
X121831337Y-75255680D01*
X121317881Y-75043000D01*
X120762119Y-75043000D01*
X120248663Y-75255680D01*
X119855680Y-75648663D01*
X119770000Y-75855513D01*
X119684320Y-75648663D01*
X119291337Y-75255680D01*
X118777881Y-75043000D01*
X118222119Y-75043000D01*
X117708663Y-75255680D01*
X117315680Y-75648663D01*
X117103000Y-76162119D01*
X111200000Y-76162119D01*
X111200000Y-73100000D01*
X203760000Y-73100000D01*
X203760001Y-126290000D01*
G04 #@! TD*
M02*
