G04 #@! TF.GenerationSoftware,KiCad,Pcbnew,(5.0.2)-1*
G04 #@! TF.CreationDate,2019-02-19T19:48:52+01:00*
G04 #@! TF.ProjectId,rload,726c6f61-642e-46b6-9963-61645f706362,rev?*
G04 #@! TF.SameCoordinates,Original*
G04 #@! TF.FileFunction,Legend,Top*
G04 #@! TF.FilePolarity,Positive*
%FSLAX46Y46*%
G04 Gerber Fmt 4.6, Leading zero omitted, Abs format (unit mm)*
G04 Created by KiCad (PCBNEW (5.0.2)-1) date 19.02.2019 19:48:52*
%MOMM*%
%LPD*%
G01*
G04 APERTURE LIST*
%ADD10C,0.600000*%
%ADD11C,0.150000*%
%ADD12C,0.120000*%
G04 APERTURE END LIST*
D10*
X188174285Y-75827142D02*
X189174285Y-78827142D01*
X190174285Y-75827142D01*
X192888571Y-78541428D02*
X192745714Y-78684285D01*
X192317142Y-78827142D01*
X192031428Y-78827142D01*
X191602857Y-78684285D01*
X191317142Y-78398571D01*
X191174285Y-78112857D01*
X191031428Y-77541428D01*
X191031428Y-77112857D01*
X191174285Y-76541428D01*
X191317142Y-76255714D01*
X191602857Y-75970000D01*
X192031428Y-75827142D01*
X192317142Y-75827142D01*
X192745714Y-75970000D01*
X192888571Y-76112857D01*
X195888571Y-78541428D02*
X195745714Y-78684285D01*
X195317142Y-78827142D01*
X195031428Y-78827142D01*
X194602857Y-78684285D01*
X194317142Y-78398571D01*
X194174285Y-78112857D01*
X194031428Y-77541428D01*
X194031428Y-77112857D01*
X194174285Y-76541428D01*
X194317142Y-76255714D01*
X194602857Y-75970000D01*
X195031428Y-75827142D01*
X195317142Y-75827142D01*
X195745714Y-75970000D01*
X195888571Y-76112857D01*
X189602857Y-120420000D02*
X189317142Y-120277142D01*
X188888571Y-120277142D01*
X188460000Y-120420000D01*
X188174285Y-120705714D01*
X188031428Y-120991428D01*
X187888571Y-121562857D01*
X187888571Y-121991428D01*
X188031428Y-122562857D01*
X188174285Y-122848571D01*
X188460000Y-123134285D01*
X188888571Y-123277142D01*
X189174285Y-123277142D01*
X189602857Y-123134285D01*
X189745714Y-122991428D01*
X189745714Y-121991428D01*
X189174285Y-121991428D01*
X191031428Y-123277142D02*
X191031428Y-120277142D01*
X192745714Y-123277142D01*
X192745714Y-120277142D01*
X194174285Y-123277142D02*
X194174285Y-120277142D01*
X194888571Y-120277142D01*
X195317142Y-120420000D01*
X195602857Y-120705714D01*
X195745714Y-120991428D01*
X195888571Y-121562857D01*
X195888571Y-121991428D01*
X195745714Y-122562857D01*
X195602857Y-122848571D01*
X195317142Y-123134285D01*
X194888571Y-123277142D01*
X194174285Y-123277142D01*
D11*
X112095595Y-112212380D02*
X112095595Y-111212380D01*
X112476547Y-111212380D01*
X112571785Y-111260000D01*
X112619404Y-111307619D01*
X112667023Y-111402857D01*
X112667023Y-111545714D01*
X112619404Y-111640952D01*
X112571785Y-111688571D01*
X112476547Y-111736190D01*
X112095595Y-111736190D01*
X113095595Y-112212380D02*
X113095595Y-111545714D01*
X113095595Y-111736190D02*
X113143214Y-111640952D01*
X113190833Y-111593333D01*
X113286071Y-111545714D01*
X113381309Y-111545714D01*
X113857500Y-112212380D02*
X113762261Y-112164761D01*
X113714642Y-112117142D01*
X113667023Y-112021904D01*
X113667023Y-111736190D01*
X113714642Y-111640952D01*
X113762261Y-111593333D01*
X113857500Y-111545714D01*
X114000357Y-111545714D01*
X114095595Y-111593333D01*
X114143214Y-111640952D01*
X114190833Y-111736190D01*
X114190833Y-112021904D01*
X114143214Y-112117142D01*
X114095595Y-112164761D01*
X114000357Y-112212380D01*
X113857500Y-112212380D01*
X115047976Y-111545714D02*
X115047976Y-112355238D01*
X115000357Y-112450476D01*
X114952738Y-112498095D01*
X114857500Y-112545714D01*
X114714642Y-112545714D01*
X114619404Y-112498095D01*
X115047976Y-112164761D02*
X114952738Y-112212380D01*
X114762261Y-112212380D01*
X114667023Y-112164761D01*
X114619404Y-112117142D01*
X114571785Y-112021904D01*
X114571785Y-111736190D01*
X114619404Y-111640952D01*
X114667023Y-111593333D01*
X114762261Y-111545714D01*
X114952738Y-111545714D01*
X115047976Y-111593333D01*
X115524166Y-112212380D02*
X115524166Y-111545714D01*
X115524166Y-111736190D02*
X115571785Y-111640952D01*
X115619404Y-111593333D01*
X115714642Y-111545714D01*
X115809880Y-111545714D01*
X116571785Y-112212380D02*
X116571785Y-111688571D01*
X116524166Y-111593333D01*
X116428928Y-111545714D01*
X116238452Y-111545714D01*
X116143214Y-111593333D01*
X116571785Y-112164761D02*
X116476547Y-112212380D01*
X116238452Y-112212380D01*
X116143214Y-112164761D01*
X116095595Y-112069523D01*
X116095595Y-111974285D01*
X116143214Y-111879047D01*
X116238452Y-111831428D01*
X116476547Y-111831428D01*
X116571785Y-111783809D01*
X117047976Y-112212380D02*
X117047976Y-111545714D01*
X117047976Y-111640952D02*
X117095595Y-111593333D01*
X117190833Y-111545714D01*
X117333690Y-111545714D01*
X117428928Y-111593333D01*
X117476547Y-111688571D01*
X117476547Y-112212380D01*
X117476547Y-111688571D02*
X117524166Y-111593333D01*
X117619404Y-111545714D01*
X117762261Y-111545714D01*
X117857500Y-111593333D01*
X117905119Y-111688571D01*
X117905119Y-112212380D01*
X118381309Y-112212380D02*
X118381309Y-111545714D01*
X118381309Y-111640952D02*
X118428928Y-111593333D01*
X118524166Y-111545714D01*
X118667023Y-111545714D01*
X118762261Y-111593333D01*
X118809880Y-111688571D01*
X118809880Y-112212380D01*
X118809880Y-111688571D02*
X118857500Y-111593333D01*
X118952738Y-111545714D01*
X119095595Y-111545714D01*
X119190833Y-111593333D01*
X119238452Y-111688571D01*
X119238452Y-112212380D01*
X120143214Y-112212380D02*
X120143214Y-111688571D01*
X120095595Y-111593333D01*
X120000357Y-111545714D01*
X119809880Y-111545714D01*
X119714642Y-111593333D01*
X120143214Y-112164761D02*
X120047976Y-112212380D01*
X119809880Y-112212380D01*
X119714642Y-112164761D01*
X119667023Y-112069523D01*
X119667023Y-111974285D01*
X119714642Y-111879047D01*
X119809880Y-111831428D01*
X120047976Y-111831428D01*
X120143214Y-111783809D01*
X120619404Y-112212380D02*
X120619404Y-111212380D01*
X120619404Y-111593333D02*
X120714642Y-111545714D01*
X120905119Y-111545714D01*
X121000357Y-111593333D01*
X121047976Y-111640952D01*
X121095595Y-111736190D01*
X121095595Y-112021904D01*
X121047976Y-112117142D01*
X121000357Y-112164761D01*
X120905119Y-112212380D01*
X120714642Y-112212380D01*
X120619404Y-112164761D01*
X121667023Y-112212380D02*
X121571785Y-112164761D01*
X121524166Y-112069523D01*
X121524166Y-111212380D01*
X122428928Y-112164761D02*
X122333690Y-112212380D01*
X122143214Y-112212380D01*
X122047976Y-112164761D01*
X122000357Y-112069523D01*
X122000357Y-111688571D01*
X122047976Y-111593333D01*
X122143214Y-111545714D01*
X122333690Y-111545714D01*
X122428928Y-111593333D01*
X122476547Y-111688571D01*
X122476547Y-111783809D01*
X122000357Y-111879047D01*
X124143214Y-112212380D02*
X123667023Y-112212380D01*
X123667023Y-111212380D01*
X124619404Y-112212380D02*
X124524166Y-112164761D01*
X124476547Y-112117142D01*
X124428928Y-112021904D01*
X124428928Y-111736190D01*
X124476547Y-111640952D01*
X124524166Y-111593333D01*
X124619404Y-111545714D01*
X124762261Y-111545714D01*
X124857500Y-111593333D01*
X124905119Y-111640952D01*
X124952738Y-111736190D01*
X124952738Y-112021904D01*
X124905119Y-112117142D01*
X124857500Y-112164761D01*
X124762261Y-112212380D01*
X124619404Y-112212380D01*
X125809880Y-112212380D02*
X125809880Y-111688571D01*
X125762261Y-111593333D01*
X125667023Y-111545714D01*
X125476547Y-111545714D01*
X125381309Y-111593333D01*
X125809880Y-112164761D02*
X125714642Y-112212380D01*
X125476547Y-112212380D01*
X125381309Y-112164761D01*
X125333690Y-112069523D01*
X125333690Y-111974285D01*
X125381309Y-111879047D01*
X125476547Y-111831428D01*
X125714642Y-111831428D01*
X125809880Y-111783809D01*
X126714642Y-112212380D02*
X126714642Y-111212380D01*
X126714642Y-112164761D02*
X126619404Y-112212380D01*
X126428928Y-112212380D01*
X126333690Y-112164761D01*
X126286071Y-112117142D01*
X126238452Y-112021904D01*
X126238452Y-111736190D01*
X126286071Y-111640952D01*
X126333690Y-111593333D01*
X126428928Y-111545714D01*
X126619404Y-111545714D01*
X126714642Y-111593333D01*
X127809880Y-111212380D02*
X128143214Y-112212380D01*
X128476547Y-111212380D01*
X129333690Y-112212380D02*
X128762261Y-112212380D01*
X129047976Y-112212380D02*
X129047976Y-111212380D01*
X128952738Y-111355238D01*
X128857500Y-111450476D01*
X128762261Y-111498095D01*
X129762261Y-112117142D02*
X129809880Y-112164761D01*
X129762261Y-112212380D01*
X129714642Y-112164761D01*
X129762261Y-112117142D01*
X129762261Y-112212380D01*
X130428928Y-111212380D02*
X130524166Y-111212380D01*
X130619404Y-111260000D01*
X130667023Y-111307619D01*
X130714642Y-111402857D01*
X130762261Y-111593333D01*
X130762261Y-111831428D01*
X130714642Y-112021904D01*
X130667023Y-112117142D01*
X130619404Y-112164761D01*
X130524166Y-112212380D01*
X130428928Y-112212380D01*
X130333690Y-112164761D01*
X130286071Y-112117142D01*
X130238452Y-112021904D01*
X130190833Y-111831428D01*
X130190833Y-111593333D01*
X130238452Y-111402857D01*
X130286071Y-111307619D01*
X130333690Y-111260000D01*
X130428928Y-111212380D01*
D12*
G04 #@! TO.C,F1*
X151130000Y-115850000D02*
X151130000Y-118650000D01*
X151130000Y-115850000D02*
X128530000Y-115850000D01*
X151130000Y-125450000D02*
X128530000Y-125450000D01*
X151130000Y-122650000D02*
X151130000Y-125450000D01*
X128530000Y-122650000D02*
X128530000Y-125450000D01*
X128530000Y-115850000D02*
X128530000Y-118650000D01*
G04 #@! TO.C,C3*
X117417500Y-92752500D02*
X117417500Y-93377500D01*
X117105000Y-93065000D02*
X117730000Y-93065000D01*
X117970000Y-96445563D02*
X119034437Y-97510000D01*
X117970000Y-93054437D02*
X119034437Y-91990000D01*
X117970000Y-93054437D02*
X117970000Y-93690000D01*
X117970000Y-96445563D02*
X117970000Y-95810000D01*
X119034437Y-97510000D02*
X123490000Y-97510000D01*
X119034437Y-91990000D02*
X123490000Y-91990000D01*
X123490000Y-91990000D02*
X123490000Y-93690000D01*
X123490000Y-97510000D02*
X123490000Y-95810000D01*
G04 #@! TO.C,C2*
X131493748Y-100460000D02*
X132016252Y-100460000D01*
X131493748Y-99040000D02*
X132016252Y-99040000D01*
G04 #@! TO.C,C4*
X125493748Y-105460000D02*
X126016252Y-105460000D01*
X125493748Y-104040000D02*
X126016252Y-104040000D01*
G04 #@! TO.C,J3*
X151100000Y-74420000D02*
X151100000Y-75750000D01*
X149770000Y-74420000D02*
X151100000Y-74420000D01*
X148500000Y-74420000D02*
X148500000Y-77080000D01*
X148500000Y-77080000D02*
X135740000Y-77080000D01*
X148500000Y-74420000D02*
X135740000Y-74420000D01*
X135740000Y-74420000D02*
X135740000Y-77080000D01*
D11*
G04 #@! TO.C,U2*
X128980000Y-90700000D02*
X127230000Y-90700000D01*
X128980000Y-96455000D02*
X134480000Y-96455000D01*
X128980000Y-90045000D02*
X134480000Y-90045000D01*
X128980000Y-96455000D02*
X128980000Y-95705000D01*
X134480000Y-96455000D02*
X134480000Y-95705000D01*
X134480000Y-90045000D02*
X134480000Y-90795000D01*
X128980000Y-90045000D02*
X128980000Y-90700000D01*
D12*
G04 #@! TO.C,Q1*
X175841000Y-76740000D02*
X175841000Y-78250000D01*
X172140000Y-76740000D02*
X172140000Y-78250000D01*
X168870000Y-78250000D02*
X179110000Y-78250000D01*
X179110000Y-76740000D02*
X179110000Y-81381000D01*
X168870000Y-76740000D02*
X168870000Y-81381000D01*
X168870000Y-81381000D02*
X179110000Y-81381000D01*
X168870000Y-76740000D02*
X179110000Y-76740000D01*
G04 #@! TO.C,R3*
X125493748Y-101960000D02*
X126016252Y-101960000D01*
X125493748Y-100540000D02*
X126016252Y-100540000D01*
G04 #@! TO.C,R2*
X118993748Y-101960000D02*
X119516252Y-101960000D01*
X118993748Y-100540000D02*
X119516252Y-100540000D01*
G04 #@! TO.C,R1*
X118968748Y-88960000D02*
X119491252Y-88960000D01*
X118968748Y-87540000D02*
X119491252Y-87540000D01*
G04 #@! TO.C,R8*
X176953172Y-96941686D02*
X175623172Y-96941686D01*
X176953172Y-111481686D02*
X176953172Y-96941686D01*
X175623172Y-111481686D02*
X176953172Y-111481686D01*
X171013172Y-96941686D02*
X172343172Y-96941686D01*
X171013172Y-111481686D02*
X171013172Y-96941686D01*
X172343172Y-111481686D02*
X171013172Y-111481686D01*
G04 #@! TO.C,R7*
X183303172Y-96927686D02*
X181973172Y-96927686D01*
X183303172Y-111467686D02*
X183303172Y-96927686D01*
X181973172Y-111467686D02*
X183303172Y-111467686D01*
X177363172Y-96927686D02*
X178693172Y-96927686D01*
X177363172Y-111467686D02*
X177363172Y-96927686D01*
X178693172Y-111467686D02*
X177363172Y-111467686D01*
G04 #@! TO.C,R6*
X189653172Y-96927686D02*
X188323172Y-96927686D01*
X189653172Y-111467686D02*
X189653172Y-96927686D01*
X188323172Y-111467686D02*
X189653172Y-111467686D01*
X183713172Y-96927686D02*
X185043172Y-96927686D01*
X183713172Y-111467686D02*
X183713172Y-96927686D01*
X185043172Y-111467686D02*
X183713172Y-111467686D01*
G04 #@! TO.C,R5*
X196003172Y-96927686D02*
X194673172Y-96927686D01*
X196003172Y-111467686D02*
X196003172Y-96927686D01*
X194673172Y-111467686D02*
X196003172Y-111467686D01*
X190063172Y-96927686D02*
X191393172Y-96927686D01*
X190063172Y-111467686D02*
X190063172Y-96927686D01*
X191393172Y-111467686D02*
X190063172Y-111467686D01*
G04 #@! TO.C,R4*
X202353172Y-96927686D02*
X201023172Y-96927686D01*
X202353172Y-111467686D02*
X202353172Y-96927686D01*
X201023172Y-111467686D02*
X202353172Y-111467686D01*
X196413172Y-96927686D02*
X197743172Y-96927686D01*
X196413172Y-111467686D02*
X196413172Y-96927686D01*
X197743172Y-111467686D02*
X196413172Y-111467686D01*
G04 #@! TO.C,R9*
X170603172Y-96941686D02*
X169273172Y-96941686D01*
X170603172Y-111481686D02*
X170603172Y-96941686D01*
X169273172Y-111481686D02*
X170603172Y-111481686D01*
X164663172Y-96941686D02*
X165993172Y-96941686D01*
X164663172Y-111481686D02*
X164663172Y-96941686D01*
X165993172Y-111481686D02*
X164663172Y-111481686D01*
G04 #@! TO.C,R10*
X164253172Y-96941686D02*
X162923172Y-96941686D01*
X164253172Y-111481686D02*
X164253172Y-96941686D01*
X162923172Y-111481686D02*
X164253172Y-111481686D01*
X158313172Y-96941686D02*
X159643172Y-96941686D01*
X158313172Y-111481686D02*
X158313172Y-96941686D01*
X159643172Y-111481686D02*
X158313172Y-111481686D01*
G04 #@! TO.C,R11*
X157903172Y-96941686D02*
X156573172Y-96941686D01*
X157903172Y-111481686D02*
X157903172Y-96941686D01*
X156573172Y-111481686D02*
X157903172Y-111481686D01*
X151963172Y-96941686D02*
X153293172Y-96941686D01*
X151963172Y-111481686D02*
X151963172Y-96941686D01*
X153293172Y-111481686D02*
X151963172Y-111481686D01*
G04 #@! TO.C,R12*
X151553172Y-96941686D02*
X150223172Y-96941686D01*
X151553172Y-111481686D02*
X151553172Y-96941686D01*
X150223172Y-111481686D02*
X151553172Y-111481686D01*
X145613172Y-96941686D02*
X146943172Y-96941686D01*
X145613172Y-111481686D02*
X145613172Y-96941686D01*
X146943172Y-111481686D02*
X145613172Y-111481686D01*
G04 #@! TO.C,R13*
X145203172Y-96941686D02*
X143873172Y-96941686D01*
X145203172Y-111481686D02*
X145203172Y-96941686D01*
X143873172Y-111481686D02*
X145203172Y-111481686D01*
X139263172Y-96941686D02*
X140593172Y-96941686D01*
X139263172Y-111481686D02*
X139263172Y-96941686D01*
X140593172Y-111481686D02*
X139263172Y-111481686D01*
G04 #@! TO.C,C1*
X113520000Y-79963748D02*
X113520000Y-80486252D01*
X114940000Y-79963748D02*
X114940000Y-80486252D01*
G04 #@! TO.C,J1*
D11*
X199056666Y-73422380D02*
X199056666Y-74136666D01*
X199009047Y-74279523D01*
X198913809Y-74374761D01*
X198770952Y-74422380D01*
X198675714Y-74422380D01*
X200056666Y-74422380D02*
X199485238Y-74422380D01*
X199770952Y-74422380D02*
X199770952Y-73422380D01*
X199675714Y-73565238D01*
X199580476Y-73660476D01*
X199485238Y-73708095D01*
G04 #@! TO.C,J2*
X199056666Y-117872380D02*
X199056666Y-118586666D01*
X199009047Y-118729523D01*
X198913809Y-118824761D01*
X198770952Y-118872380D01*
X198675714Y-118872380D01*
X199485238Y-117967619D02*
X199532857Y-117920000D01*
X199628095Y-117872380D01*
X199866190Y-117872380D01*
X199961428Y-117920000D01*
X200009047Y-117967619D01*
X200056666Y-118062857D01*
X200056666Y-118158095D01*
X200009047Y-118300952D01*
X199437619Y-118872380D01*
X200056666Y-118872380D01*
G04 #@! TO.C,F1*
X129206666Y-114228571D02*
X128873333Y-114228571D01*
X128873333Y-114752380D02*
X128873333Y-113752380D01*
X129349523Y-113752380D01*
X130254285Y-114752380D02*
X129682857Y-114752380D01*
X129968571Y-114752380D02*
X129968571Y-113752380D01*
X129873333Y-113895238D01*
X129778095Y-113990476D01*
X129682857Y-114038095D01*
G04 #@! TO.C,J4*
X112696666Y-113752380D02*
X112696666Y-114466666D01*
X112649047Y-114609523D01*
X112553809Y-114704761D01*
X112410952Y-114752380D01*
X112315714Y-114752380D01*
X113601428Y-114085714D02*
X113601428Y-114752380D01*
X113363333Y-113704761D02*
X113125238Y-114419047D01*
X113744285Y-114419047D01*
G04 #@! TO.C,U1*
X111212380Y-81011904D02*
X112021904Y-81011904D01*
X112117142Y-80964285D01*
X112164761Y-80916666D01*
X112212380Y-80821428D01*
X112212380Y-80630952D01*
X112164761Y-80535714D01*
X112117142Y-80488095D01*
X112021904Y-80440476D01*
X111212380Y-80440476D01*
X112212380Y-79440476D02*
X112212380Y-80011904D01*
X112212380Y-79726190D02*
X111212380Y-79726190D01*
X111355238Y-79821428D01*
X111450476Y-79916666D01*
X111498095Y-80011904D01*
X118952380Y-82258095D02*
X117952380Y-82258095D01*
X117952380Y-82020000D01*
X118000000Y-81877142D01*
X118095238Y-81781904D01*
X118190476Y-81734285D01*
X118380952Y-81686666D01*
X118523809Y-81686666D01*
X118714285Y-81734285D01*
X118809523Y-81781904D01*
X118904761Y-81877142D01*
X118952380Y-82020000D01*
X118952380Y-82258095D01*
X117952380Y-80781904D02*
X117952380Y-81258095D01*
X118428571Y-81305714D01*
X118380952Y-81258095D01*
X118333333Y-81162857D01*
X118333333Y-80924761D01*
X118380952Y-80829523D01*
X118428571Y-80781904D01*
X118523809Y-80734285D01*
X118761904Y-80734285D01*
X118857142Y-80781904D01*
X118904761Y-80829523D01*
X118952380Y-80924761D01*
X118952380Y-81162857D01*
X118904761Y-81258095D01*
X118857142Y-81305714D01*
X121492380Y-82258095D02*
X120492380Y-82258095D01*
X120492380Y-82020000D01*
X120540000Y-81877142D01*
X120635238Y-81781904D01*
X120730476Y-81734285D01*
X120920952Y-81686666D01*
X121063809Y-81686666D01*
X121254285Y-81734285D01*
X121349523Y-81781904D01*
X121444761Y-81877142D01*
X121492380Y-82020000D01*
X121492380Y-82258095D01*
X120492380Y-81353333D02*
X120492380Y-80734285D01*
X120873333Y-81067619D01*
X120873333Y-80924761D01*
X120920952Y-80829523D01*
X120968571Y-80781904D01*
X121063809Y-80734285D01*
X121301904Y-80734285D01*
X121397142Y-80781904D01*
X121444761Y-80829523D01*
X121492380Y-80924761D01*
X121492380Y-81210476D01*
X121444761Y-81305714D01*
X121397142Y-81353333D01*
X124032380Y-82258095D02*
X123032380Y-82258095D01*
X123032380Y-82020000D01*
X123080000Y-81877142D01*
X123175238Y-81781904D01*
X123270476Y-81734285D01*
X123460952Y-81686666D01*
X123603809Y-81686666D01*
X123794285Y-81734285D01*
X123889523Y-81781904D01*
X123984761Y-81877142D01*
X124032380Y-82020000D01*
X124032380Y-82258095D01*
X123365714Y-80829523D02*
X124032380Y-80829523D01*
X122984761Y-81067619D02*
X123699047Y-81305714D01*
X123699047Y-80686666D01*
X125620000Y-82281904D02*
X125572380Y-82377142D01*
X125572380Y-82520000D01*
X125620000Y-82662857D01*
X125715238Y-82758095D01*
X125810476Y-82805714D01*
X126000952Y-82853333D01*
X126143809Y-82853333D01*
X126334285Y-82805714D01*
X126429523Y-82758095D01*
X126524761Y-82662857D01*
X126572380Y-82520000D01*
X126572380Y-82424761D01*
X126524761Y-82281904D01*
X126477142Y-82234285D01*
X126143809Y-82234285D01*
X126143809Y-82424761D01*
X126572380Y-81805714D02*
X125572380Y-81805714D01*
X126572380Y-81234285D01*
X125572380Y-81234285D01*
X126572380Y-80758095D02*
X125572380Y-80758095D01*
X125572380Y-80520000D01*
X125620000Y-80377142D01*
X125715238Y-80281904D01*
X125810476Y-80234285D01*
X126000952Y-80186666D01*
X126143809Y-80186666D01*
X126334285Y-80234285D01*
X126429523Y-80281904D01*
X126524761Y-80377142D01*
X126572380Y-80520000D01*
X126572380Y-80758095D01*
X126572380Y-79718095D02*
X125572380Y-79718095D01*
X125572380Y-79480000D01*
X125620000Y-79337142D01*
X125715238Y-79241904D01*
X125810476Y-79194285D01*
X126000952Y-79146666D01*
X126143809Y-79146666D01*
X126334285Y-79194285D01*
X126429523Y-79241904D01*
X126524761Y-79337142D01*
X126572380Y-79480000D01*
X126572380Y-79718095D01*
X125572380Y-78527619D02*
X125572380Y-78432380D01*
X125620000Y-78337142D01*
X125667619Y-78289523D01*
X125762857Y-78241904D01*
X125953333Y-78194285D01*
X126191428Y-78194285D01*
X126381904Y-78241904D01*
X126477142Y-78289523D01*
X126524761Y-78337142D01*
X126572380Y-78432380D01*
X126572380Y-78527619D01*
X126524761Y-78622857D01*
X126477142Y-78670476D01*
X126381904Y-78718095D01*
X126191428Y-78765714D01*
X125953333Y-78765714D01*
X125762857Y-78718095D01*
X125667619Y-78670476D01*
X125620000Y-78622857D01*
X125572380Y-78527619D01*
X124032380Y-79718095D02*
X123032380Y-79718095D01*
X123032380Y-79480000D01*
X123080000Y-79337142D01*
X123175238Y-79241904D01*
X123270476Y-79194285D01*
X123460952Y-79146666D01*
X123603809Y-79146666D01*
X123794285Y-79194285D01*
X123889523Y-79241904D01*
X123984761Y-79337142D01*
X124032380Y-79480000D01*
X124032380Y-79718095D01*
X124032380Y-78194285D02*
X124032380Y-78765714D01*
X124032380Y-78480000D02*
X123032380Y-78480000D01*
X123175238Y-78575238D01*
X123270476Y-78670476D01*
X123318095Y-78765714D01*
X121492380Y-79718095D02*
X120492380Y-79718095D01*
X120492380Y-79480000D01*
X120540000Y-79337142D01*
X120635238Y-79241904D01*
X120730476Y-79194285D01*
X120920952Y-79146666D01*
X121063809Y-79146666D01*
X121254285Y-79194285D01*
X121349523Y-79241904D01*
X121444761Y-79337142D01*
X121492380Y-79480000D01*
X121492380Y-79718095D01*
X120587619Y-78765714D02*
X120540000Y-78718095D01*
X120492380Y-78622857D01*
X120492380Y-78384761D01*
X120540000Y-78289523D01*
X120587619Y-78241904D01*
X120682857Y-78194285D01*
X120778095Y-78194285D01*
X120920952Y-78241904D01*
X121492380Y-78813333D01*
X121492380Y-78194285D01*
X117952380Y-80313333D02*
X118952380Y-79980000D01*
X117952380Y-79646666D01*
X118857142Y-78741904D02*
X118904761Y-78789523D01*
X118952380Y-78932380D01*
X118952380Y-79027619D01*
X118904761Y-79170476D01*
X118809523Y-79265714D01*
X118714285Y-79313333D01*
X118523809Y-79360952D01*
X118380952Y-79360952D01*
X118190476Y-79313333D01*
X118095238Y-79265714D01*
X118000000Y-79170476D01*
X117952380Y-79027619D01*
X117952380Y-78932380D01*
X118000000Y-78789523D01*
X118047619Y-78741904D01*
X118857142Y-77741904D02*
X118904761Y-77789523D01*
X118952380Y-77932380D01*
X118952380Y-78027619D01*
X118904761Y-78170476D01*
X118809523Y-78265714D01*
X118714285Y-78313333D01*
X118523809Y-78360952D01*
X118380952Y-78360952D01*
X118190476Y-78313333D01*
X118095238Y-78265714D01*
X118000000Y-78170476D01*
X117952380Y-78027619D01*
X117952380Y-77932380D01*
X118000000Y-77789523D01*
X118047619Y-77741904D01*
G04 #@! TO.C,C3*
X120563333Y-91407142D02*
X120515714Y-91454761D01*
X120372857Y-91502380D01*
X120277619Y-91502380D01*
X120134761Y-91454761D01*
X120039523Y-91359523D01*
X119991904Y-91264285D01*
X119944285Y-91073809D01*
X119944285Y-90930952D01*
X119991904Y-90740476D01*
X120039523Y-90645238D01*
X120134761Y-90550000D01*
X120277619Y-90502380D01*
X120372857Y-90502380D01*
X120515714Y-90550000D01*
X120563333Y-90597619D01*
X120896666Y-90502380D02*
X121515714Y-90502380D01*
X121182380Y-90883333D01*
X121325238Y-90883333D01*
X121420476Y-90930952D01*
X121468095Y-90978571D01*
X121515714Y-91073809D01*
X121515714Y-91311904D01*
X121468095Y-91407142D01*
X121420476Y-91454761D01*
X121325238Y-91502380D01*
X121039523Y-91502380D01*
X120944285Y-91454761D01*
X120896666Y-91407142D01*
G04 #@! TO.C,C2*
X131588333Y-98457142D02*
X131540714Y-98504761D01*
X131397857Y-98552380D01*
X131302619Y-98552380D01*
X131159761Y-98504761D01*
X131064523Y-98409523D01*
X131016904Y-98314285D01*
X130969285Y-98123809D01*
X130969285Y-97980952D01*
X131016904Y-97790476D01*
X131064523Y-97695238D01*
X131159761Y-97600000D01*
X131302619Y-97552380D01*
X131397857Y-97552380D01*
X131540714Y-97600000D01*
X131588333Y-97647619D01*
X131969285Y-97647619D02*
X132016904Y-97600000D01*
X132112142Y-97552380D01*
X132350238Y-97552380D01*
X132445476Y-97600000D01*
X132493095Y-97647619D01*
X132540714Y-97742857D01*
X132540714Y-97838095D01*
X132493095Y-97980952D01*
X131921666Y-98552380D01*
X132540714Y-98552380D01*
G04 #@! TO.C,C4*
X125588333Y-103457142D02*
X125540714Y-103504761D01*
X125397857Y-103552380D01*
X125302619Y-103552380D01*
X125159761Y-103504761D01*
X125064523Y-103409523D01*
X125016904Y-103314285D01*
X124969285Y-103123809D01*
X124969285Y-102980952D01*
X125016904Y-102790476D01*
X125064523Y-102695238D01*
X125159761Y-102600000D01*
X125302619Y-102552380D01*
X125397857Y-102552380D01*
X125540714Y-102600000D01*
X125588333Y-102647619D01*
X126445476Y-102885714D02*
X126445476Y-103552380D01*
X126207380Y-102504761D02*
X125969285Y-103219047D01*
X126588333Y-103219047D01*
G04 #@! TO.C,J3*
X133016666Y-75202380D02*
X133016666Y-75916666D01*
X132969047Y-76059523D01*
X132873809Y-76154761D01*
X132730952Y-76202380D01*
X132635714Y-76202380D01*
X133397619Y-75202380D02*
X134016666Y-75202380D01*
X133683333Y-75583333D01*
X133826190Y-75583333D01*
X133921428Y-75630952D01*
X133969047Y-75678571D01*
X134016666Y-75773809D01*
X134016666Y-76011904D01*
X133969047Y-76107142D01*
X133921428Y-76154761D01*
X133826190Y-76202380D01*
X133540476Y-76202380D01*
X133445238Y-76154761D01*
X133397619Y-76107142D01*
G04 #@! TO.C,U2*
X130968095Y-88202380D02*
X130968095Y-89011904D01*
X131015714Y-89107142D01*
X131063333Y-89154761D01*
X131158571Y-89202380D01*
X131349047Y-89202380D01*
X131444285Y-89154761D01*
X131491904Y-89107142D01*
X131539523Y-89011904D01*
X131539523Y-88202380D01*
X131968095Y-88297619D02*
X132015714Y-88250000D01*
X132110952Y-88202380D01*
X132349047Y-88202380D01*
X132444285Y-88250000D01*
X132491904Y-88297619D01*
X132539523Y-88392857D01*
X132539523Y-88488095D01*
X132491904Y-88630952D01*
X131920476Y-89202380D01*
X132539523Y-89202380D01*
G04 #@! TO.C,Q1*
X173894761Y-76287619D02*
X173799523Y-76240000D01*
X173704285Y-76144761D01*
X173561428Y-76001904D01*
X173466190Y-75954285D01*
X173370952Y-75954285D01*
X173418571Y-76192380D02*
X173323333Y-76144761D01*
X173228095Y-76049523D01*
X173180476Y-75859047D01*
X173180476Y-75525714D01*
X173228095Y-75335238D01*
X173323333Y-75240000D01*
X173418571Y-75192380D01*
X173609047Y-75192380D01*
X173704285Y-75240000D01*
X173799523Y-75335238D01*
X173847142Y-75525714D01*
X173847142Y-75859047D01*
X173799523Y-76049523D01*
X173704285Y-76144761D01*
X173609047Y-76192380D01*
X173418571Y-76192380D01*
X174799523Y-76192380D02*
X174228095Y-76192380D01*
X174513809Y-76192380D02*
X174513809Y-75192380D01*
X174418571Y-75335238D01*
X174323333Y-75430476D01*
X174228095Y-75478095D01*
G04 #@! TO.C,R3*
X125588333Y-100052380D02*
X125255000Y-99576190D01*
X125016904Y-100052380D02*
X125016904Y-99052380D01*
X125397857Y-99052380D01*
X125493095Y-99100000D01*
X125540714Y-99147619D01*
X125588333Y-99242857D01*
X125588333Y-99385714D01*
X125540714Y-99480952D01*
X125493095Y-99528571D01*
X125397857Y-99576190D01*
X125016904Y-99576190D01*
X125921666Y-99052380D02*
X126540714Y-99052380D01*
X126207380Y-99433333D01*
X126350238Y-99433333D01*
X126445476Y-99480952D01*
X126493095Y-99528571D01*
X126540714Y-99623809D01*
X126540714Y-99861904D01*
X126493095Y-99957142D01*
X126445476Y-100004761D01*
X126350238Y-100052380D01*
X126064523Y-100052380D01*
X125969285Y-100004761D01*
X125921666Y-99957142D01*
G04 #@! TO.C,R2*
X119088333Y-100052380D02*
X118755000Y-99576190D01*
X118516904Y-100052380D02*
X118516904Y-99052380D01*
X118897857Y-99052380D01*
X118993095Y-99100000D01*
X119040714Y-99147619D01*
X119088333Y-99242857D01*
X119088333Y-99385714D01*
X119040714Y-99480952D01*
X118993095Y-99528571D01*
X118897857Y-99576190D01*
X118516904Y-99576190D01*
X119469285Y-99147619D02*
X119516904Y-99100000D01*
X119612142Y-99052380D01*
X119850238Y-99052380D01*
X119945476Y-99100000D01*
X119993095Y-99147619D01*
X120040714Y-99242857D01*
X120040714Y-99338095D01*
X119993095Y-99480952D01*
X119421666Y-100052380D01*
X120040714Y-100052380D01*
G04 #@! TO.C,R1*
X119063333Y-87052380D02*
X118730000Y-86576190D01*
X118491904Y-87052380D02*
X118491904Y-86052380D01*
X118872857Y-86052380D01*
X118968095Y-86100000D01*
X119015714Y-86147619D01*
X119063333Y-86242857D01*
X119063333Y-86385714D01*
X119015714Y-86480952D01*
X118968095Y-86528571D01*
X118872857Y-86576190D01*
X118491904Y-86576190D01*
X120015714Y-87052380D02*
X119444285Y-87052380D01*
X119730000Y-87052380D02*
X119730000Y-86052380D01*
X119634761Y-86195238D01*
X119539523Y-86290476D01*
X119444285Y-86338095D01*
G04 #@! TO.C,R8*
X173823333Y-94432380D02*
X173490000Y-93956190D01*
X173251904Y-94432380D02*
X173251904Y-93432380D01*
X173632857Y-93432380D01*
X173728095Y-93480000D01*
X173775714Y-93527619D01*
X173823333Y-93622857D01*
X173823333Y-93765714D01*
X173775714Y-93860952D01*
X173728095Y-93908571D01*
X173632857Y-93956190D01*
X173251904Y-93956190D01*
X174394761Y-93860952D02*
X174299523Y-93813333D01*
X174251904Y-93765714D01*
X174204285Y-93670476D01*
X174204285Y-93622857D01*
X174251904Y-93527619D01*
X174299523Y-93480000D01*
X174394761Y-93432380D01*
X174585238Y-93432380D01*
X174680476Y-93480000D01*
X174728095Y-93527619D01*
X174775714Y-93622857D01*
X174775714Y-93670476D01*
X174728095Y-93765714D01*
X174680476Y-93813333D01*
X174585238Y-93860952D01*
X174394761Y-93860952D01*
X174299523Y-93908571D01*
X174251904Y-93956190D01*
X174204285Y-94051428D01*
X174204285Y-94241904D01*
X174251904Y-94337142D01*
X174299523Y-94384761D01*
X174394761Y-94432380D01*
X174585238Y-94432380D01*
X174680476Y-94384761D01*
X174728095Y-94337142D01*
X174775714Y-94241904D01*
X174775714Y-94051428D01*
X174728095Y-93956190D01*
X174680476Y-93908571D01*
X174585238Y-93860952D01*
G04 #@! TO.C,R7*
X180173333Y-94432380D02*
X179840000Y-93956190D01*
X179601904Y-94432380D02*
X179601904Y-93432380D01*
X179982857Y-93432380D01*
X180078095Y-93480000D01*
X180125714Y-93527619D01*
X180173333Y-93622857D01*
X180173333Y-93765714D01*
X180125714Y-93860952D01*
X180078095Y-93908571D01*
X179982857Y-93956190D01*
X179601904Y-93956190D01*
X180506666Y-93432380D02*
X181173333Y-93432380D01*
X180744761Y-94432380D01*
G04 #@! TO.C,R6*
X186523333Y-94432380D02*
X186190000Y-93956190D01*
X185951904Y-94432380D02*
X185951904Y-93432380D01*
X186332857Y-93432380D01*
X186428095Y-93480000D01*
X186475714Y-93527619D01*
X186523333Y-93622857D01*
X186523333Y-93765714D01*
X186475714Y-93860952D01*
X186428095Y-93908571D01*
X186332857Y-93956190D01*
X185951904Y-93956190D01*
X187380476Y-93432380D02*
X187190000Y-93432380D01*
X187094761Y-93480000D01*
X187047142Y-93527619D01*
X186951904Y-93670476D01*
X186904285Y-93860952D01*
X186904285Y-94241904D01*
X186951904Y-94337142D01*
X186999523Y-94384761D01*
X187094761Y-94432380D01*
X187285238Y-94432380D01*
X187380476Y-94384761D01*
X187428095Y-94337142D01*
X187475714Y-94241904D01*
X187475714Y-94003809D01*
X187428095Y-93908571D01*
X187380476Y-93860952D01*
X187285238Y-93813333D01*
X187094761Y-93813333D01*
X186999523Y-93860952D01*
X186951904Y-93908571D01*
X186904285Y-94003809D01*
G04 #@! TO.C,R5*
X192873333Y-94432380D02*
X192540000Y-93956190D01*
X192301904Y-94432380D02*
X192301904Y-93432380D01*
X192682857Y-93432380D01*
X192778095Y-93480000D01*
X192825714Y-93527619D01*
X192873333Y-93622857D01*
X192873333Y-93765714D01*
X192825714Y-93860952D01*
X192778095Y-93908571D01*
X192682857Y-93956190D01*
X192301904Y-93956190D01*
X193778095Y-93432380D02*
X193301904Y-93432380D01*
X193254285Y-93908571D01*
X193301904Y-93860952D01*
X193397142Y-93813333D01*
X193635238Y-93813333D01*
X193730476Y-93860952D01*
X193778095Y-93908571D01*
X193825714Y-94003809D01*
X193825714Y-94241904D01*
X193778095Y-94337142D01*
X193730476Y-94384761D01*
X193635238Y-94432380D01*
X193397142Y-94432380D01*
X193301904Y-94384761D01*
X193254285Y-94337142D01*
G04 #@! TO.C,R4*
X199223333Y-94432380D02*
X198890000Y-93956190D01*
X198651904Y-94432380D02*
X198651904Y-93432380D01*
X199032857Y-93432380D01*
X199128095Y-93480000D01*
X199175714Y-93527619D01*
X199223333Y-93622857D01*
X199223333Y-93765714D01*
X199175714Y-93860952D01*
X199128095Y-93908571D01*
X199032857Y-93956190D01*
X198651904Y-93956190D01*
X200080476Y-93765714D02*
X200080476Y-94432380D01*
X199842380Y-93384761D02*
X199604285Y-94099047D01*
X200223333Y-94099047D01*
G04 #@! TO.C,R9*
X167473333Y-94432380D02*
X167140000Y-93956190D01*
X166901904Y-94432380D02*
X166901904Y-93432380D01*
X167282857Y-93432380D01*
X167378095Y-93480000D01*
X167425714Y-93527619D01*
X167473333Y-93622857D01*
X167473333Y-93765714D01*
X167425714Y-93860952D01*
X167378095Y-93908571D01*
X167282857Y-93956190D01*
X166901904Y-93956190D01*
X167949523Y-94432380D02*
X168140000Y-94432380D01*
X168235238Y-94384761D01*
X168282857Y-94337142D01*
X168378095Y-94194285D01*
X168425714Y-94003809D01*
X168425714Y-93622857D01*
X168378095Y-93527619D01*
X168330476Y-93480000D01*
X168235238Y-93432380D01*
X168044761Y-93432380D01*
X167949523Y-93480000D01*
X167901904Y-93527619D01*
X167854285Y-93622857D01*
X167854285Y-93860952D01*
X167901904Y-93956190D01*
X167949523Y-94003809D01*
X168044761Y-94051428D01*
X168235238Y-94051428D01*
X168330476Y-94003809D01*
X168378095Y-93956190D01*
X168425714Y-93860952D01*
G04 #@! TO.C,R10*
X160647142Y-94432380D02*
X160313809Y-93956190D01*
X160075714Y-94432380D02*
X160075714Y-93432380D01*
X160456666Y-93432380D01*
X160551904Y-93480000D01*
X160599523Y-93527619D01*
X160647142Y-93622857D01*
X160647142Y-93765714D01*
X160599523Y-93860952D01*
X160551904Y-93908571D01*
X160456666Y-93956190D01*
X160075714Y-93956190D01*
X161599523Y-94432380D02*
X161028095Y-94432380D01*
X161313809Y-94432380D02*
X161313809Y-93432380D01*
X161218571Y-93575238D01*
X161123333Y-93670476D01*
X161028095Y-93718095D01*
X162218571Y-93432380D02*
X162313809Y-93432380D01*
X162409047Y-93480000D01*
X162456666Y-93527619D01*
X162504285Y-93622857D01*
X162551904Y-93813333D01*
X162551904Y-94051428D01*
X162504285Y-94241904D01*
X162456666Y-94337142D01*
X162409047Y-94384761D01*
X162313809Y-94432380D01*
X162218571Y-94432380D01*
X162123333Y-94384761D01*
X162075714Y-94337142D01*
X162028095Y-94241904D01*
X161980476Y-94051428D01*
X161980476Y-93813333D01*
X162028095Y-93622857D01*
X162075714Y-93527619D01*
X162123333Y-93480000D01*
X162218571Y-93432380D01*
G04 #@! TO.C,R11*
X154297142Y-94432380D02*
X153963809Y-93956190D01*
X153725714Y-94432380D02*
X153725714Y-93432380D01*
X154106666Y-93432380D01*
X154201904Y-93480000D01*
X154249523Y-93527619D01*
X154297142Y-93622857D01*
X154297142Y-93765714D01*
X154249523Y-93860952D01*
X154201904Y-93908571D01*
X154106666Y-93956190D01*
X153725714Y-93956190D01*
X155249523Y-94432380D02*
X154678095Y-94432380D01*
X154963809Y-94432380D02*
X154963809Y-93432380D01*
X154868571Y-93575238D01*
X154773333Y-93670476D01*
X154678095Y-93718095D01*
X156201904Y-94432380D02*
X155630476Y-94432380D01*
X155916190Y-94432380D02*
X155916190Y-93432380D01*
X155820952Y-93575238D01*
X155725714Y-93670476D01*
X155630476Y-93718095D01*
G04 #@! TO.C,R12*
X147947142Y-94432380D02*
X147613809Y-93956190D01*
X147375714Y-94432380D02*
X147375714Y-93432380D01*
X147756666Y-93432380D01*
X147851904Y-93480000D01*
X147899523Y-93527619D01*
X147947142Y-93622857D01*
X147947142Y-93765714D01*
X147899523Y-93860952D01*
X147851904Y-93908571D01*
X147756666Y-93956190D01*
X147375714Y-93956190D01*
X148899523Y-94432380D02*
X148328095Y-94432380D01*
X148613809Y-94432380D02*
X148613809Y-93432380D01*
X148518571Y-93575238D01*
X148423333Y-93670476D01*
X148328095Y-93718095D01*
X149280476Y-93527619D02*
X149328095Y-93480000D01*
X149423333Y-93432380D01*
X149661428Y-93432380D01*
X149756666Y-93480000D01*
X149804285Y-93527619D01*
X149851904Y-93622857D01*
X149851904Y-93718095D01*
X149804285Y-93860952D01*
X149232857Y-94432380D01*
X149851904Y-94432380D01*
G04 #@! TO.C,R13*
X141597142Y-94432380D02*
X141263809Y-93956190D01*
X141025714Y-94432380D02*
X141025714Y-93432380D01*
X141406666Y-93432380D01*
X141501904Y-93480000D01*
X141549523Y-93527619D01*
X141597142Y-93622857D01*
X141597142Y-93765714D01*
X141549523Y-93860952D01*
X141501904Y-93908571D01*
X141406666Y-93956190D01*
X141025714Y-93956190D01*
X142549523Y-94432380D02*
X141978095Y-94432380D01*
X142263809Y-94432380D02*
X142263809Y-93432380D01*
X142168571Y-93575238D01*
X142073333Y-93670476D01*
X141978095Y-93718095D01*
X142882857Y-93432380D02*
X143501904Y-93432380D01*
X143168571Y-93813333D01*
X143311428Y-93813333D01*
X143406666Y-93860952D01*
X143454285Y-93908571D01*
X143501904Y-94003809D01*
X143501904Y-94241904D01*
X143454285Y-94337142D01*
X143406666Y-94384761D01*
X143311428Y-94432380D01*
X143025714Y-94432380D01*
X142930476Y-94384761D01*
X142882857Y-94337142D01*
G04 #@! TO.C,C1*
X116237142Y-80391666D02*
X116284761Y-80439285D01*
X116332380Y-80582142D01*
X116332380Y-80677380D01*
X116284761Y-80820238D01*
X116189523Y-80915476D01*
X116094285Y-80963095D01*
X115903809Y-81010714D01*
X115760952Y-81010714D01*
X115570476Y-80963095D01*
X115475238Y-80915476D01*
X115380000Y-80820238D01*
X115332380Y-80677380D01*
X115332380Y-80582142D01*
X115380000Y-80439285D01*
X115427619Y-80391666D01*
X116332380Y-79439285D02*
X116332380Y-80010714D01*
X116332380Y-79725000D02*
X115332380Y-79725000D01*
X115475238Y-79820238D01*
X115570476Y-79915476D01*
X115618095Y-80010714D01*
G04 #@! TD*
M02*
