M48
;DRILL file {KiCad (5.0.2)-1} date 19.02.2019 19:48:54
;FORMAT={-:-/ absolute / inch / decimal}
FMAT,2
INCH,TZ
T1C0.0157
T2C0.0300
T3C0.0394
T4C0.0433
T5C0.0551
T6C0.0591
T7C0.0984
%
G90
G05
T1
X4.46Y-3.6
X4.47Y-3.31
X4.55Y-2.95
X4.5563Y-4.1831
X4.6Y-3.1
X4.6547Y-3.1398
X4.75Y-3.65
X4.8Y-3.85
X4.8Y-4.1
X4.8909Y-4.3012
X4.9Y-3.2
X4.9891Y-3.1891
X5.05Y-3.85
X5.0681Y-3.498
X5.0681Y-4.0453
X5.1665Y-4.2224
X5.18Y-3.69
X5.2Y-3.
X5.2Y-3.15
X5.23Y-3.81
X5.25Y-4.05
X5.27Y-3.31
X5.3Y-3.45
X5.35Y-3.9
X5.4618Y-3.6122
X5.8Y-3.35
X5.975Y-2.925
X5.975Y-3.1
X6.3476Y-3.1398
X6.65Y-3.35
T2
X4.6654Y-3.0094
X4.6654Y-3.3094
X4.7654Y-3.0094
X4.7654Y-3.3094
X4.8654Y-3.0094
X4.8654Y-3.3094
X4.9654Y-3.0094
X4.9654Y-3.3094
T3
X5.3965Y-2.9823
X5.4965Y-2.9823
X5.5965Y-2.9823
X5.6965Y-2.9823
X5.7965Y-2.9823
X5.8965Y-2.9823
T4
X6.75Y-3.15
X6.85Y-3.15
X6.95Y-3.15
T5
X6.5997Y-3.8028
X6.5997Y-4.4028
X6.0997Y-3.8028
X6.0997Y-4.4028
X7.3497Y-3.8023
X7.3497Y-4.4023
X5.5997Y-3.8028
X5.5997Y-4.4028
X6.3497Y-3.8028
X6.3497Y-4.4028
X7.0997Y-3.8023
X7.0997Y-4.4023
X7.5997Y-3.8023
X7.5997Y-4.4023
X7.8497Y-3.8023
X7.8497Y-4.4023
X6.8497Y-3.8028
X6.8497Y-4.4028
X5.8497Y-3.8028
X5.8497Y-4.4028
T6
X5.0602Y-4.75
X5.95Y-4.75
T7
X7.85Y-3.05
X7.85Y-4.8
T4
X4.6453Y-4.7933G85X4.6453Y-4.7067
G05
X4.7319Y-4.5531G85X4.8185Y-4.5531
G05
X4.8933Y-4.7067G85X4.8933Y-4.7933
G05
T0
M30
